# Blender 4.4.1
# www.blender.org
mtllib skydome.mtl
o 球
v 0.000000 166.293930 -111.114037
v 0.000000 111.114067 -166.293900
v 0.000000 39.018082 -196.157043
v 0.000000 0.000015 -200.000000
v 0.000000 -39.018051 -196.157043
v 0.000000 -111.114037 -166.293930
v -7.612047 196.157043 -38.268326
v -14.931568 184.775894 -75.066048
v -21.677277 166.293930 -108.979004
v -27.589937 141.421371 -138.703964
v -32.442333 111.114067 -163.098602
v -36.047989 76.536705 -181.225479
v -38.268341 39.018082 -192.387939
v -39.018066 0.000015 -196.157043
v -38.268341 -39.018051 -192.387939
v -36.047989 -76.536674 -181.225479
v -32.442333 -111.114037 -163.098633
v -27.589937 -141.421341 -138.703995
v -21.677277 -166.293900 -108.979034
v -14.931568 -184.775894 -75.066078
v -7.612047 -196.157043 -38.268356
v -14.931565 196.157043 -36.047974
v -29.289324 184.775894 -70.710670
v -42.521507 166.293930 -102.655968
v -54.119610 141.421371 -130.656281
v -63.637924 111.114067 -153.635513
v -70.710670 76.536705 -170.710678
v -75.066055 39.018082 -181.225479
v -76.536682 0.000014 -184.775894
v -75.066055 -39.018051 -181.225479
v -70.710670 -76.536674 -170.710678
v -63.637924 -111.114037 -153.635544
v -54.119610 -141.421341 -130.656311
v -42.521507 -166.293900 -102.655998
v -29.289324 -184.775894 -70.710701
v -14.931565 -196.157043 -36.048004
v -21.677273 196.157043 -32.442314
v -42.521507 184.775894 -63.637917
v -61.731655 166.293915 -92.387924
v -78.569496 141.421371 -117.587547
v -92.387939 111.114059 -138.268295
v -102.655983 76.536705 -153.635544
v -108.979019 39.018078 -163.098618
v -111.114052 0.000013 -166.293900
v -108.979019 -39.018055 -163.098618
v -102.655983 -76.536674 -153.635544
v -92.387939 -111.114044 -138.268326
v -78.569496 -141.421341 -117.587563
v -61.731655 -166.293915 -92.387955
v -42.521507 -184.775894 -63.637947
v -21.677273 -196.157043 -32.442345
v -27.589935 196.157043 -27.589916
v -54.119610 184.775894 -54.119591
v -78.569489 166.293915 -78.569466
v -100.000000 141.421356 -99.999992
v -117.587540 111.114059 -117.587524
v -130.656281 76.536697 -130.656296
v -138.703979 39.018078 -138.703964
v -141.421356 0.000011 -141.421326
v -138.703979 -39.018055 -138.703964
v -130.656281 -76.536682 -130.656296
v -117.587540 -111.114044 -117.587540
v -100.000000 -141.421356 -100.000008
v -78.569489 -166.293915 -78.569496
v -54.119610 -184.775894 -54.119621
v -27.589935 -196.157043 -27.589947
v -32.442329 196.157043 -21.677256
v -63.637932 184.775894 -42.521484
v -92.387947 166.293915 -61.731632
v -117.587555 141.421356 -78.569489
v -138.268326 111.114059 -92.387917
v -153.635529 76.536697 -102.655991
v -163.098618 39.018074 -108.978996
v -166.293915 0.000008 -111.113998
v -163.098618 -39.018059 -108.978996
v -153.635529 -76.536682 -102.656006
v -138.268326 -111.114044 -92.387932
v -117.587555 -141.421356 -78.569504
v -92.387947 -166.293915 -61.731655
v -63.637932 -184.775894 -42.521515
v -32.442329 -196.157043 -21.677286
v 0.000000 200.000000 0.000015
v -36.047981 196.157043 -14.931547
v -70.710670 184.775894 -29.289305
v -102.655983 166.293915 -42.521481
v -130.656296 141.421356 -54.119598
v -153.635529 111.114059 -63.637894
v -170.710663 76.536697 -70.710678
v -181.225464 39.018070 -75.066032
v -184.775879 0.000006 -76.536644
v -181.225464 -39.018063 -75.066032
v -170.710663 -76.536682 -70.710693
v -153.635529 -111.114044 -63.637909
v -130.656296 -141.421356 -54.119621
v -102.655983 -166.293915 -42.521503
v -70.710670 -184.775894 -29.289331
v -36.047981 -196.157043 -14.931578
v -38.268333 196.157043 -7.612028
v -75.066048 184.775894 -14.931548
v -108.979012 166.293915 -21.677250
v -138.703979 141.421356 -27.589930
v -163.098602 111.114052 -32.442307
v -181.225464 76.536690 -36.047989
v -192.387924 39.018070 -38.268318
v -196.157013 0.000003 -39.018024
v -192.387924 -39.018063 -38.268326
v -181.225464 -76.536690 -36.048004
v -163.098602 -111.114052 -32.442322
v -138.703979 -141.421356 -27.589952
v -108.979012 -166.293915 -21.677277
v -75.066048 -184.775894 -14.931577
v -38.268333 -196.157043 -7.612058
v -39.018051 196.157043 0.000017
v -76.536682 184.775894 0.000018
v -111.114029 166.293915 0.000023
v -141.421341 141.421356 0.000008
v -166.293884 111.114052 0.000026
v -184.775894 76.536690 -0.000003
v -196.157028 39.018066 0.000021
v -199.999939 -0.000000 0.000033
v -196.157028 -39.018066 0.000015
v -184.775894 -76.536690 -0.000015
v -166.293884 -111.114052 0.000010
v -141.421341 -141.421356 -0.000014
v -111.114029 -166.293915 -0.000003
v -76.536682 -184.775894 -0.000010
v -39.018051 -196.157043 -0.000013
v -38.268330 196.157043 7.612062
v -75.066048 184.775894 14.931584
v -108.978996 166.293915 21.677294
v -138.703964 141.421356 27.589943
v -163.098587 111.114052 32.442352
v -181.225464 76.536690 36.047989
v -192.387909 39.018063 38.268360
v -196.156982 -0.000003 39.018085
v -192.387909 -39.018070 38.268353
v -181.225464 -76.536690 36.047974
v -163.098587 -111.114052 32.442337
v -138.703964 -141.421356 27.589920
v -108.978996 -166.293915 21.677267
v -75.066048 -184.775894 14.931556
v -38.268330 -196.157043 7.612032
v -36.047977 196.157043 14.931580
v -70.710670 184.775894 29.289337
v -102.655960 166.293915 42.521519
v -130.656281 141.421356 54.119610
v -153.635498 111.114044 63.637939
v -170.710663 76.536682 70.710670
v -181.225449 39.018063 75.066063
v -184.775818 -0.000006 76.536690
v -181.225449 -39.018070 75.066063
v -170.710663 -76.536697 70.710655
v -153.635498 -111.114059 63.637924
v -130.656281 -141.421356 54.119587
v -102.655960 -166.293915 42.521496
v -70.710670 -184.775894 29.289310
v -36.047977 -196.157043 14.931549
v -32.442318 196.157043 21.677282
v -63.637917 184.775894 42.521519
v -92.387917 166.293915 61.731659
v -117.587540 141.421356 78.569489
v -138.268295 111.114044 92.387947
v -153.635529 76.536682 102.655975
v -163.098587 39.018059 108.979012
v -166.293823 -0.000008 111.114037
v -163.098587 -39.018074 108.979012
v -153.635529 -76.536697 102.655960
v -138.268295 -111.114059 92.387932
v -117.587540 -141.421356 78.569473
v -92.387917 -166.293915 61.731636
v -63.637917 -184.775894 42.521488
v -32.442318 -196.157043 21.677252
v -27.589924 196.157043 27.589941
v -54.119595 184.775894 54.119621
v -78.569450 166.293915 78.569496
v -99.999985 141.421356 99.999992
v -117.587509 111.114044 117.587540
v -130.656281 76.536682 130.656265
v -138.703949 39.018055 138.703964
v -141.421249 -0.000011 141.421326
v -138.703949 -39.018078 138.703964
v -130.656281 -76.536697 130.656265
v -117.587509 -111.114059 117.587524
v -99.999985 -141.421356 99.999977
v -78.569450 -166.293915 78.569466
v -54.119595 -184.775894 54.119591
v -27.589924 -196.157043 27.589911
v -21.677263 196.157043 32.442333
v -42.521488 184.775894 63.637939
v -61.731617 166.293915 92.387947
v -78.569481 141.421341 117.587547
v -92.387909 111.114044 138.268326
v -102.655983 76.536674 153.635513
v -108.978973 39.018055 163.098602
v -111.113945 -0.000013 166.293869
v -108.978973 -39.018078 163.098602
v -102.655983 -76.536705 153.635513
v -92.387909 -111.114059 138.268295
v -78.569481 -141.421371 117.587532
v -61.731617 -166.293915 92.387917
v -42.521488 -184.775894 63.637909
v -21.677263 -196.157043 32.442303
v -14.931557 196.157043 36.047985
v -29.289305 184.775894 70.710678
v -42.521469 166.293900 102.655975
v -54.119598 141.421341 130.656296
v -63.637890 111.114037 153.635513
v -70.710670 76.536674 170.710632
v -75.066010 39.018051 181.225449
v -76.536591 -0.000014 184.775833
v -75.066010 -39.018082 181.225449
v -70.710670 -76.536705 170.710632
v -63.637890 -111.114067 153.635483
v -54.119598 -141.421371 130.656265
v -42.521469 -166.293930 102.655945
v -29.289305 -184.775894 70.710648
v -14.931557 -196.157043 36.047955
v -7.612041 196.157043 38.268333
v -14.931552 184.775894 75.066048
v -21.677246 166.293900 108.978989
v -27.589931 141.421341 138.703979
v -32.442303 111.114037 163.098587
v -36.047989 76.536674 181.225449
v -38.268303 39.018051 192.387894
v -39.017982 -0.000015 196.156952
v -38.268303 -39.018082 192.387894
v -36.047989 -76.536705 181.225449
v -32.442303 -111.114067 163.098557
v -27.589931 -141.421371 138.703949
v -21.677246 -166.293930 108.978958
v -14.931552 -184.775894 75.066017
v -7.612041 -196.157043 38.268303
v 0.000001 196.157043 39.018055
v 0.000010 184.775894 76.536682
v 0.000019 166.293900 111.114006
v 0.000003 141.421341 141.421341
v 0.000021 111.114037 166.293869
v -0.000006 76.536674 184.775848
v 0.000027 39.018051 196.156998
v 0.000066 -0.000015 199.999863
v 0.000027 -39.018082 196.156998
v -0.000006 -76.536705 184.775848
v 0.000021 -111.114067 166.293839
v 0.000003 -141.421371 141.421310
v 0.000019 -166.293930 111.113976
v 0.000010 -184.775894 76.536652
v 0.000001 -196.157043 39.018024
v 7.612043 196.157043 38.268330
v 14.931573 184.775894 75.066048
v 21.677284 166.293900 108.978981
v 27.589935 141.421341 138.703964
v 32.442345 111.114037 163.098572
v 36.047974 76.536674 181.225433
v 38.268356 39.018051 192.387878
v 39.018105 -0.000015 196.156906
v 38.268356 -39.018082 192.387878
v 36.047974 -76.536705 181.225433
v 32.442345 -111.114067 163.098541
v 27.589935 -141.421371 138.703934
v 21.677284 -166.293930 108.978951
v 14.931573 -184.775894 75.066017
v 7.612043 -196.157043 38.268299
v 14.931557 196.157043 36.047981
v 29.289324 184.775894 70.710678
v 42.521500 166.293900 102.655937
v 54.119598 141.421341 130.656281
v 63.637924 111.114037 153.635498
v 70.710648 76.536674 170.710617
v 75.066055 39.018051 181.225403
v 76.536697 -0.000014 184.775742
v 75.066055 -39.018082 181.225403
v 70.710648 -76.536705 170.710617
v 63.637924 -111.114067 153.635468
v 54.119598 -141.421371 130.656250
v 42.521500 -166.293930 102.655907
v 29.289324 -184.775894 70.710648
v 14.931557 -196.157043 36.047951
v 21.677259 196.157043 32.442326
v 42.521500 184.775894 63.637920
v 61.731636 166.293915 92.387894
v 78.569481 141.421341 117.587540
v 92.387924 111.114044 138.268280
v 102.655945 76.536674 153.635498
v 108.979012 39.018055 163.098557
v 111.114029 -0.000013 166.293747
v 108.979012 -39.018078 163.098557
v 102.655945 -76.536705 153.635498
v 92.387924 -111.114059 138.268250
v 78.569481 -141.421371 117.587524
v 61.731636 -166.293915 92.387863
v 42.521500 -184.775894 63.637890
v 21.677259 -196.157043 32.442295
v 27.589916 196.157043 27.589930
v 54.119598 184.775894 54.119602
v 78.569458 166.293915 78.569443
v 99.999985 141.421356 99.999985
v 117.587517 111.114044 117.587494
v 130.656250 76.536682 130.656250
v 138.703949 39.018055 138.703903
v 141.421295 -0.000011 141.421188
v 138.703949 -39.018078 138.703903
v 130.656250 -76.536697 130.656250
v 117.587517 -111.114059 117.587479
v 99.999985 -141.421356 99.999969
v 78.569458 -166.293915 78.569412
v 54.119598 -184.775894 54.119572
v 27.589916 -196.157043 27.589899
v 0.000000 -200.000000 -0.000015
v 32.442310 196.157043 21.677271
v 63.637913 184.775894 42.521500
v 92.387901 166.293915 61.731602
v 117.587532 141.421356 78.569481
v 138.268295 111.114044 92.387894
v 153.635483 76.536682 102.655968
v 163.098587 39.018059 108.978943
v 166.293823 -0.000008 111.113884
v 163.098587 -39.018074 108.978943
v 153.635483 -76.536697 102.655952
v 138.268295 -111.114059 92.387878
v 117.587532 -141.421356 78.569466
v 92.387901 -166.293915 61.731579
v 63.637913 -184.775894 42.521469
v 32.442310 -196.157043 21.677240
v 36.047962 196.157043 14.931566
v 70.710655 184.775894 29.289316
v 102.655922 166.293915 42.521458
v 130.656265 141.421356 54.119606
v 153.635483 111.114044 63.637871
v 170.710617 76.536682 70.710663
v 181.225433 39.018063 75.065979
v 184.775772 -0.000006 76.536537
v 181.225433 -39.018070 75.065979
v 170.710617 -76.536697 70.710648
v 153.635483 -111.114059 63.637856
v 130.656265 -141.421356 54.119583
v 102.655922 -166.293915 42.521435
v 70.710655 -184.775894 29.289289
v 36.047962 -196.157043 14.931536
v 38.268311 196.157043 7.612051
v 75.066025 184.775894 14.931565
v 108.978943 166.293915 21.677244
v 138.703949 141.421356 27.589937
v 163.098557 111.114052 32.442295
v 181.225418 76.536690 36.047985
v 192.387878 39.018063 38.268280
v 196.156891 -0.000003 39.017941
v 192.387878 -39.018070 38.268272
v 181.225418 -76.536690 36.047970
v 163.098557 -111.114052 32.442280
v 138.703949 -141.421356 27.589914
v 108.978943 -166.293915 21.677217
v 75.066025 -184.775894 14.931537
v 38.268311 -196.157043 7.612021
v 39.018028 196.157043 0.000011
v 76.536652 184.775894 0.000004
v 111.113953 166.293915 -0.000017
v 141.421326 141.421356 0.000005
v 166.293839 111.114052 -0.000025
v 184.775833 76.536690 0.000003
v 196.156967 39.018066 -0.000051
v 199.999817 0.000000 -0.000089
v 196.156967 -39.018066 -0.000057
v 184.775833 -76.536690 -0.000009
v 166.293839 -111.114052 -0.000041
v 141.421326 -141.421356 -0.000017
v 111.113953 -166.293915 -0.000043
v 76.536652 -184.775894 -0.000024
v 39.018028 -196.157043 -0.000019
v 38.268307 196.157043 -7.612028
v 75.066017 184.775894 -14.931556
v 108.978928 166.293915 -21.677273
v 138.703949 141.421356 -27.589926
v 163.098526 111.114052 -32.442345
v 181.225403 76.536690 -36.047974
v 192.387848 39.018070 -38.268375
v 196.156845 0.000003 -39.018116
v 192.387848 -39.018063 -38.268383
v 181.225403 -76.536690 -36.047989
v 163.098526 -111.114052 -32.442360
v 138.703949 -141.421356 -27.589949
v 108.978928 -166.293915 -21.677299
v 75.066017 -184.775894 -14.931584
v 38.268307 -196.157043 -7.612058
v 36.047955 196.157043 -14.931541
v 70.710640 184.775894 -29.289305
v 102.655884 166.293915 -42.521484
v 130.656250 141.421356 -54.119587
v 153.635437 111.114059 -63.637917
v 170.710602 76.536697 -70.710640
v 181.225372 39.018070 -75.066063
v 184.775681 0.000006 -76.536697
v 181.225372 -39.018063 -75.066063
v 170.710602 -76.536682 -70.710655
v 153.635437 -111.114044 -63.637932
v 130.656250 -141.421356 -54.119610
v 102.655884 -166.293915 -42.521507
v 70.710640 -184.775894 -29.289331
v 36.047955 -196.157043 -14.931572
v 32.442303 196.157043 -21.677244
v 63.637890 184.775894 -42.521477
v 92.387840 166.293915 -61.731621
v 117.587517 141.421356 -78.569473
v 138.268234 111.114059 -92.387917
v 153.635483 76.536697 -102.655937
v 163.098511 39.018074 -108.979012
v 166.293686 0.000008 -111.114014
v 163.098511 -39.018059 -108.979012
v 153.635483 -76.536682 -102.655952
v 138.268234 -111.114044 -92.387932
v 117.587517 -141.421356 -78.569489
v 92.387840 -166.293915 -61.731644
v 63.637890 -184.775894 -42.521507
v 32.442303 -196.157043 -21.677275
v 27.589909 196.157043 -27.589899
v 54.119576 184.775894 -54.119572
v 78.569389 166.293915 -78.569435
v 99.999962 141.421356 -99.999969
v 117.587448 111.114059 -117.587502
v 130.656235 76.536697 -130.656235
v 138.703873 39.018078 -138.703949
v 141.421143 0.000011 -141.421265
v 138.703873 -39.018055 -138.703949
v 130.656235 -76.536682 -130.656235
v 117.587448 -111.114044 -117.587517
v 99.999962 -141.421356 -99.999985
v 78.569389 -166.293915 -78.569466
v 54.119576 -184.775894 -54.119602
v 27.589909 -196.157043 -27.589930
v 21.677250 196.157043 -32.442287
v 42.521473 184.775894 -63.637886
v 61.731560 166.293915 -92.387871
v 78.569458 141.421371 -117.587524
v 92.387856 111.114059 -138.268250
v 102.655937 76.536705 -153.635483
v 108.978912 39.018078 -163.098557
v 111.113846 0.000013 -166.293793
v 108.978912 -39.018055 -163.098557
v 102.655937 -76.536674 -153.635483
v 92.387856 -111.114044 -138.268280
v 78.569458 -141.421341 -117.587540
v 61.731560 -166.293915 -92.387901
v 42.521473 -184.775894 -63.637917
v 21.677250 -196.157043 -32.442318
v 14.931547 196.157043 -36.047939
v 29.289297 184.775894 -70.710632
v 42.521420 166.293930 -102.655884
v 54.119579 141.421371 -130.656250
v 63.637840 111.114067 -153.635437
v 70.710632 76.536705 -170.710602
v 75.065956 39.018082 -181.225403
v 76.536514 0.000014 -184.775726
v 75.065956 -39.018051 -181.225403
v 70.710632 -76.536674 -170.710602
v 63.637840 -111.114037 -153.635468
v 54.119579 -141.421341 -130.656281
v 42.521420 -166.293900 -102.655914
v 29.289297 -184.775894 -70.710663
v 14.931547 -196.157043 -36.047970
v 7.612035 196.157043 -38.268284
v 14.931546 184.775894 -75.066002
v 21.677208 166.293930 -108.978889
v 27.589914 141.421371 -138.703934
v 32.442265 111.114067 -163.098495
v 36.047962 76.536705 -181.225403
v 38.268265 39.018082 -192.387848
v 39.017925 0.000015 -196.156830
v 38.268265 -39.018051 -192.387848
v 36.047962 -76.536674 -181.225403
v 32.442265 -111.114037 -163.098526
v 27.589914 -141.421341 -138.703964
v 21.677208 -166.293900 -108.978920
v 14.931546 -184.775894 -75.066032
v 7.612035 -196.157043 -38.268314
v -0.000003 196.157043 -39.018005
v -0.000013 184.775894 -76.536629
v -0.000018 141.421371 -141.421310
v -0.000012 76.536705 -184.775803
v -0.000012 -76.536674 -184.775803
v -0.000018 -141.421341 -141.421341
v -0.000043 -166.293900 -111.113922
v -0.000013 -184.775894 -76.536659
v -0.000003 -196.157043 -39.018036
vn 0.0624 -0.7715 0.6332
vn 0.0759 0.6326 0.7708
vn 0.0759 -0.6326 0.7708
vn 0.0624 0.7715 0.6332
vn 0.0865 -0.4696 0.8786
vn 0.0464 0.8810 0.4709
vn 0.0938 -0.2890 0.9527
vn 0.0286 0.9565 0.2902
vn 0.0975 -0.0975 0.9904
vn 0.0976 -0.0976 0.9904
vn 0.0097 -0.9951 0.0980
vn 0.0097 0.9951 0.0980
vn 0.0975 0.0975 0.9904
vn 0.0286 -0.9565 0.2902
vn 0.0938 0.2890 0.9527
vn 0.0464 -0.8810 0.4709
vn 0.0865 0.4696 0.8786
vn 0.1374 -0.8810 0.4528
vn 0.2563 0.4696 0.8448
vn 0.1847 -0.7715 0.6088
vn 0.2248 0.6326 0.7412
vn 0.2248 -0.6326 0.7412
vn 0.1847 0.7715 0.6088
vn 0.2563 -0.4696 0.8448
vn 0.1374 0.8810 0.4528
vn 0.2779 -0.2890 0.9161
vn 0.0846 0.9565 0.2790
vn 0.2889 -0.0975 0.9524
vn 0.0286 -0.9951 0.0942
vn 0.0286 0.9951 0.0942
vn 0.2889 0.0975 0.9524
vn 0.0846 -0.9565 0.2790
vn 0.2779 0.2890 0.9161
vn 0.4513 -0.2890 0.8443
vn 0.1374 0.9565 0.2571
vn 0.4691 -0.0975 0.8777
vn 0.0464 -0.9951 0.0869
vn 0.0464 0.9951 0.0869
vn 0.4691 0.0975 0.8777
vn 0.1374 -0.9565 0.2571
vn 0.4513 0.2890 0.8443
vn 0.2230 -0.8810 0.4173
vn 0.4162 0.4696 0.7786
vn 0.2999 -0.7715 0.5611
vn 0.3651 0.6326 0.6831
vn 0.3651 -0.6326 0.6831
vn 0.2999 0.7715 0.5611
vn 0.4162 -0.4696 0.7786
vn 0.2231 0.8810 0.4173
vn 0.2230 0.8810 0.4173
vn 0.5601 0.4696 0.6825
vn 0.4036 -0.7715 0.4918
vn 0.4913 0.6326 0.5987
vn 0.4913 -0.6326 0.5987
vn 0.4036 0.7715 0.4918
vn 0.5601 -0.4696 0.6825
vn 0.3002 0.8810 0.3658
vn 0.6073 -0.2890 0.7400
vn 0.1850 0.9565 0.2254
vn 0.6314 -0.0975 0.7693
vn 0.0625 -0.9951 0.0761
vn 0.0625 0.9951 0.0761
vn 0.6314 0.0975 0.7693
vn 0.1850 -0.9565 0.2254
vn 0.6073 0.2890 0.7400
vn 0.3002 -0.8810 0.3658
vn 0.2254 0.9565 0.1850
vn 0.7693 -0.0975 0.6314
vn 0.0761 -0.9951 0.0625
vn 0.0761 0.9951 0.0625
vn 0.7693 0.0975 0.6314
vn 0.2254 -0.9565 0.1850
vn 0.7400 0.2890 0.6073
vn 0.3658 -0.8810 0.3002
vn 0.6825 0.4696 0.5601
vn 0.4918 -0.7715 0.4036
vn 0.5987 0.6326 0.4913
vn 0.5987 -0.6326 0.4913
vn 0.4918 0.7715 0.4036
vn 0.6825 -0.4696 0.5601
vn 0.3658 0.8810 0.3002
vn 0.7400 -0.2890 0.6073
vn 0.5611 -0.7715 0.2999
vn 0.6831 0.6326 0.3651
vn 0.6831 -0.6326 0.3651
vn 0.5611 0.7715 0.2999
vn 0.7786 -0.4696 0.4162
vn 0.4173 0.8810 0.2230
vn 0.8443 -0.2890 0.4513
vn 0.2571 0.9565 0.1374
vn 0.8777 -0.0975 0.4691
vn 0.0869 -0.9951 0.0464
vn 0.0869 0.9951 0.0464
vn 0.8777 0.0975 0.4691
vn 0.2571 -0.9565 0.1374
vn 0.8443 0.2890 0.4513
vn 0.4173 -0.8810 0.2231
vn 0.4173 -0.8810 0.2230
vn 0.7786 0.4696 0.4162
vn 0.9524 -0.0975 0.2889
vn 0.0942 -0.9951 0.0286
vn 0.0942 0.9951 0.0286
vn 0.9524 0.0975 0.2889
vn 0.2790 -0.9565 0.0846
vn 0.9161 0.2890 0.2779
vn 0.4528 -0.8810 0.1374
vn 0.8448 0.4696 0.2563
vn 0.6088 -0.7715 0.1847
vn 0.7412 0.6326 0.2248
vn 0.7412 -0.6326 0.2248
vn 0.6088 0.7715 0.1847
vn 0.8448 -0.4696 0.2563
vn 0.4528 0.8810 0.1374
vn 0.9161 -0.2890 0.2779
vn 0.2790 0.9565 0.0846
vn 0.7708 0.6326 0.0759
vn 0.7708 -0.6326 0.0759
vn 0.6332 0.7715 0.0624
vn 0.8786 -0.4696 0.0865
vn 0.4709 0.8810 0.0464
vn 0.9527 -0.2890 0.0938
vn 0.2902 0.9565 0.0286
vn 0.9904 -0.0975 0.0975
vn 0.0980 -0.9951 0.0097
vn 0.0980 0.9951 0.0097
vn 0.9904 0.0975 0.0975
vn 0.2902 -0.9565 0.0286
vn 0.9527 0.2890 0.0938
vn 0.4709 -0.8810 0.0464
vn 0.8786 0.4696 0.0865
vn 0.6332 -0.7715 0.0624
vn 0.0980 0.9951 -0.0097
vn 0.9904 0.0975 -0.0976
vn 0.2902 -0.9565 -0.0286
vn 0.9527 0.2890 -0.0938
vn 0.4709 -0.8810 -0.0464
vn 0.8786 0.4696 -0.0865
vn 0.6332 -0.7715 -0.0624
vn 0.7708 0.6326 -0.0759
vn 0.7708 -0.6326 -0.0759
vn 0.6332 0.7715 -0.0624
vn 0.8786 -0.4696 -0.0865
vn 0.4709 0.8810 -0.0464
vn 0.9527 -0.2890 -0.0938
vn 0.2902 0.9565 -0.0286
vn 0.9904 -0.0975 -0.0976
vn 0.0980 -0.9951 -0.0097
vn 0.6088 0.7715 -0.1847
vn 0.8448 -0.4696 -0.2563
vn 0.4528 0.8810 -0.1374
vn 0.9161 -0.2890 -0.2779
vn 0.2790 0.9565 -0.0846
vn 0.9524 -0.0975 -0.2889
vn 0.0942 -0.9951 -0.0286
vn 0.0942 0.9951 -0.0286
vn 0.9524 0.0975 -0.2889
vn 0.2790 -0.9565 -0.0846
vn 0.9161 0.2890 -0.2779
vn 0.4528 -0.8810 -0.1374
vn 0.8448 0.4696 -0.2563
vn 0.6088 -0.7715 -0.1847
vn 0.7412 0.6326 -0.2248
vn 0.7412 -0.6326 -0.2248
vn 0.2571 -0.9565 -0.1374
vn 0.8443 0.2890 -0.4513
vn 0.4173 -0.8810 -0.2230
vn 0.4173 -0.8810 -0.2231
vn 0.7786 0.4696 -0.4162
vn 0.5611 -0.7715 -0.2999
vn 0.6831 0.6326 -0.3651
vn 0.6831 -0.6326 -0.3651
vn 0.5611 0.7715 -0.2999
vn 0.7786 -0.4696 -0.4162
vn 0.4173 0.8810 -0.2231
vn 0.4173 0.8810 -0.2230
vn 0.8443 -0.2890 -0.4513
vn 0.2571 0.9565 -0.1374
vn 0.8777 -0.0975 -0.4691
vn 0.0869 -0.9951 -0.0464
vn 0.0869 0.9951 -0.0464
vn 0.8777 0.0975 -0.4691
vn 0.6825 -0.4696 -0.5601
vn 0.3658 0.8810 -0.3002
vn 0.7400 -0.2890 -0.6073
vn 0.2254 0.9565 -0.1850
vn 0.7693 -0.0975 -0.6314
vn 0.0761 -0.9951 -0.0625
vn 0.0761 0.9951 -0.0625
vn 0.7693 0.0975 -0.6314
vn 0.2254 -0.9565 -0.1850
vn 0.7400 0.2890 -0.6073
vn 0.3658 -0.8810 -0.3002
vn 0.6825 0.4696 -0.5601
vn 0.4918 -0.7715 -0.4036
vn 0.5987 0.6326 -0.4913
vn 0.5987 -0.6326 -0.4913
vn 0.4918 0.7715 -0.4036
vn 0.6073 0.2890 -0.7400
vn 0.3002 -0.8810 -0.3658
vn 0.5601 0.4696 -0.6825
vn 0.4036 -0.7715 -0.4918
vn 0.4913 0.6326 -0.5987
vn 0.4913 -0.6326 -0.5987
vn 0.4036 0.7715 -0.4918
vn 0.5601 -0.4696 -0.6825
vn 0.3002 0.8810 -0.3658
vn 0.6073 -0.2890 -0.7400
vn 0.1850 0.9565 -0.2254
vn 0.6314 -0.0975 -0.7693
vn 0.0625 -0.9951 -0.0761
vn 0.0625 0.9951 -0.0761
vn 0.6314 0.0975 -0.7693
vn 0.1850 -0.9565 -0.2254
vn 0.2231 0.8810 -0.4173
vn 0.2230 0.8810 -0.4173
vn 0.4513 -0.2890 -0.8443
vn 0.1374 0.9565 -0.2571
vn 0.4691 -0.0975 -0.8777
vn 0.0464 -0.9951 -0.0869
vn 0.0464 0.9951 -0.0869
vn 0.4691 0.0975 -0.8777
vn 0.1374 -0.9565 -0.2571
vn 0.4513 0.2890 -0.8443
vn 0.2230 -0.8810 -0.4173
vn 0.4162 0.4696 -0.7786
vn 0.2999 -0.7715 -0.5611
vn 0.3651 0.6326 -0.6831
vn 0.3651 -0.6326 -0.6831
vn 0.2999 0.7715 -0.5611
vn 0.4162 -0.4696 -0.7786
vn 0.1374 -0.8810 -0.4528
vn 0.2563 0.4696 -0.8448
vn 0.1847 -0.7715 -0.6088
vn 0.2248 0.6326 -0.7412
vn 0.2248 -0.6326 -0.7412
vn 0.1847 0.7715 -0.6088
vn 0.2563 -0.4696 -0.8448
vn 0.1374 0.8810 -0.4528
vn 0.2779 -0.2890 -0.9161
vn 0.0846 0.9565 -0.2790
vn 0.2889 -0.0975 -0.9524
vn 0.0286 -0.9951 -0.0942
vn 0.0286 0.9951 -0.0942
vn 0.2889 0.0975 -0.9524
vn 0.0846 -0.9565 -0.2790
vn 0.2779 0.2890 -0.9161
vn 0.0938 -0.2890 -0.9527
vn 0.0286 0.9565 -0.2902
vn 0.0975 -0.0975 -0.9904
vn 0.0097 -0.9951 -0.0980
vn 0.0097 0.9951 -0.0980
vn 0.0975 0.0975 -0.9904
vn 0.0286 -0.9565 -0.2902
vn 0.0938 0.2890 -0.9527
vn 0.0464 -0.8810 -0.4709
vn 0.0865 0.4696 -0.8786
vn 0.0624 -0.7715 -0.6332
vn 0.0759 0.6326 -0.7708
vn 0.0759 -0.6326 -0.7708
vn 0.0624 0.7715 -0.6332
vn 0.0865 -0.4696 -0.8786
vn 0.0464 0.8810 -0.4709
vn -0.0865 0.4696 -0.8786
vn -0.0624 -0.7715 -0.6332
vn -0.0759 0.6326 -0.7708
vn -0.0759 -0.6326 -0.7708
vn -0.0624 0.7715 -0.6332
vn -0.0865 -0.4696 -0.8786
vn -0.0464 0.8810 -0.4709
vn -0.0938 -0.2890 -0.9527
vn -0.0286 0.9565 -0.2902
vn -0.0975 -0.0975 -0.9904
vn -0.0097 -0.9951 -0.0980
vn -0.0097 0.9951 -0.0980
vn -0.0975 0.0975 -0.9904
vn -0.0286 -0.9565 -0.2902
vn -0.0938 0.2890 -0.9527
vn -0.0464 -0.8810 -0.4709
vn -0.0846 0.9565 -0.2790
vn -0.2889 -0.0975 -0.9524
vn -0.0286 -0.9951 -0.0942
vn -0.0286 0.9951 -0.0942
vn -0.2889 0.0975 -0.9524
vn -0.0846 -0.9565 -0.2790
vn -0.2779 0.2890 -0.9161
vn -0.1374 -0.8810 -0.4528
vn -0.2563 0.4696 -0.8448
vn -0.1847 -0.7715 -0.6088
vn -0.2248 0.6326 -0.7412
vn -0.2248 -0.6326 -0.7412
vn -0.1847 0.7715 -0.6088
vn -0.2563 -0.4696 -0.8448
vn -0.1374 0.8810 -0.4528
vn -0.2779 -0.2890 -0.9161
vn -0.3651 0.6326 -0.6831
vn -0.3651 -0.6326 -0.6831
vn -0.2999 0.7715 -0.5611
vn -0.4162 -0.4696 -0.7786
vn -0.2231 0.8810 -0.4173
vn -0.4513 -0.2890 -0.8443
vn -0.1374 0.9565 -0.2571
vn -0.4691 -0.0975 -0.8777
vn -0.0464 -0.9951 -0.0869
vn -0.0464 0.9951 -0.0869
vn -0.4691 0.0975 -0.8777
vn -0.1374 -0.9565 -0.2571
vn -0.4513 0.2890 -0.8443
vn -0.2231 -0.8810 -0.4173
vn -0.4162 0.4696 -0.7786
vn -0.2999 -0.7715 -0.5611
vn -0.0625 -0.9951 -0.0761
vn -0.0625 0.9951 -0.0761
vn -0.6314 0.0975 -0.7693
vn -0.1850 -0.9565 -0.2254
vn -0.6073 0.2890 -0.7400
vn -0.3002 -0.8810 -0.3658
vn -0.5601 0.4696 -0.6825
vn -0.4036 -0.7715 -0.4918
vn -0.4913 0.6326 -0.5987
vn -0.4913 -0.6326 -0.5987
vn -0.4036 0.7715 -0.4918
vn -0.5601 -0.4696 -0.6825
vn -0.3002 0.8810 -0.3658
vn -0.6073 -0.2890 -0.7400
vn -0.1850 0.9565 -0.2254
vn -0.6314 -0.0975 -0.7693
vn -0.5987 -0.6326 -0.4913
vn -0.4918 0.7715 -0.4036
vn -0.6825 -0.4696 -0.5601
vn -0.3658 0.8810 -0.3002
vn -0.7400 -0.2890 -0.6073
vn -0.2254 0.9565 -0.1850
vn -0.7693 -0.0975 -0.6314
vn -0.0761 -0.9951 -0.0625
vn -0.0761 0.9951 -0.0625
vn -0.7693 0.0975 -0.6314
vn -0.2254 -0.9565 -0.1850
vn -0.7400 0.2890 -0.6073
vn -0.3658 -0.8810 -0.3002
vn -0.6825 0.4696 -0.5601
vn -0.4918 -0.7715 -0.4036
vn -0.5987 0.6326 -0.4913
vn -0.8777 0.0975 -0.4691
vn -0.2571 -0.9565 -0.1374
vn -0.8443 0.2890 -0.4513
vn -0.4173 -0.8810 -0.2230
vn -0.7786 0.4696 -0.4162
vn -0.5611 -0.7715 -0.2999
vn -0.6831 0.6326 -0.3651
vn -0.6831 -0.6326 -0.3651
vn -0.5611 0.7715 -0.2999
vn -0.7786 -0.4696 -0.4162
vn -0.4173 0.8810 -0.2231
vn -0.4173 0.8810 -0.2230
vn -0.8443 -0.2890 -0.4513
vn -0.2571 0.9565 -0.1374
vn -0.8777 -0.0975 -0.4691
vn -0.0869 -0.9951 -0.0464
vn -0.0869 0.9951 -0.0464
vn -0.6088 0.7715 -0.1847
vn -0.8448 -0.4696 -0.2563
vn -0.4528 0.8810 -0.1374
vn -0.9161 -0.2890 -0.2779
vn -0.2790 0.9565 -0.0846
vn -0.9524 -0.0975 -0.2889
vn -0.0942 -0.9951 -0.0286
vn -0.0942 0.9951 -0.0286
vn -0.9524 0.0975 -0.2889
vn -0.2790 -0.9565 -0.0846
vn -0.9161 0.2890 -0.2779
vn -0.4528 -0.8810 -0.1374
vn -0.8448 0.4696 -0.2563
vn -0.6088 -0.7715 -0.1847
vn -0.7412 0.6326 -0.2248
vn -0.7412 -0.6326 -0.2248
vn -0.2902 -0.9565 -0.0286
vn -0.9527 0.2890 -0.0938
vn -0.4709 -0.8810 -0.0464
vn -0.8786 0.4696 -0.0865
vn -0.6332 -0.7715 -0.0624
vn -0.7708 0.6326 -0.0759
vn -0.7708 -0.6326 -0.0759
vn -0.6332 0.7715 -0.0624
vn -0.8786 -0.4696 -0.0865
vn -0.4709 0.8810 -0.0464
vn -0.9527 -0.2890 -0.0938
vn -0.2902 0.9565 -0.0286
vn -0.9904 -0.0975 -0.0975
vn -0.0980 -0.9951 -0.0097
vn -0.0980 0.9951 -0.0097
vn -0.9904 0.0975 -0.0975
vn -0.8786 -0.4696 0.0865
vn -0.4709 0.8810 0.0464
vn -0.9527 -0.2890 0.0938
vn -0.2902 0.9565 0.0286
vn -0.9904 -0.0975 0.0976
vn -0.0980 -0.9951 0.0097
vn -0.0980 0.9951 0.0097
vn -0.9904 0.0975 0.0976
vn -0.2902 -0.9565 0.0286
vn -0.9527 0.2890 0.0938
vn -0.4709 -0.8810 0.0464
vn -0.8786 0.4696 0.0865
vn -0.6332 -0.7715 0.0624
vn -0.7708 0.6326 0.0759
vn -0.7708 -0.6326 0.0759
vn -0.6332 0.7715 0.0624
vn -0.9161 0.2890 0.2779
vn -0.4528 -0.8810 0.1374
vn -0.8448 0.4696 0.2563
vn -0.6088 -0.7715 0.1847
vn -0.7412 0.6326 0.2248
vn -0.7412 -0.6326 0.2248
vn -0.6088 0.7715 0.1847
vn -0.8448 -0.4696 0.2563
vn -0.4528 0.8810 0.1374
vn -0.9161 -0.2890 0.2779
vn -0.2790 0.9565 0.0846
vn -0.9524 -0.0975 0.2889
vn -0.0942 -0.9951 0.0286
vn -0.0942 0.9951 0.0286
vn -0.9524 0.0975 0.2889
vn -0.2790 -0.9565 0.0846
vn -0.4173 0.8810 0.2231
vn -0.4173 0.8810 0.2230
vn -0.8443 -0.2890 0.4513
vn -0.2571 0.9565 0.1374
vn -0.8777 -0.0975 0.4691
vn -0.0869 -0.9951 0.0464
vn -0.0869 0.9951 0.0464
vn -0.8777 0.0975 0.4691
vn -0.2571 -0.9565 0.1374
vn -0.8443 0.2890 0.4513
vn -0.4173 -0.8810 0.2230
vn -0.7786 0.4696 0.4162
vn -0.5611 -0.7715 0.2999
vn -0.6831 0.6326 0.3651
vn -0.6831 -0.6326 0.3651
vn -0.5611 0.7715 0.2999
vn -0.7786 -0.4696 0.4162
vn -0.6825 0.4696 0.5601
vn -0.4918 -0.7715 0.4036
vn -0.5987 0.6326 0.4913
vn -0.5987 -0.6326 0.4913
vn -0.4918 0.7715 0.4036
vn -0.6825 -0.4696 0.5601
vn -0.3658 0.8810 0.3002
vn -0.7400 -0.2890 0.6073
vn -0.2254 0.9565 0.1850
vn -0.7693 -0.0975 0.6314
vn -0.0761 -0.9951 0.0625
vn -0.0761 0.9951 0.0625
vn -0.7693 0.0975 0.6314
vn -0.2254 -0.9565 0.1850
vn -0.7400 0.2890 0.6073
vn -0.3658 -0.8810 0.3002
vn -0.1850 0.9565 0.2254
vn -0.6314 -0.0975 0.7693
vn -0.0625 -0.9951 0.0761
vn -0.0625 0.9951 0.0761
vn -0.6314 0.0975 0.7693
vn -0.1850 -0.9565 0.2254
vn -0.6073 0.2890 0.7400
vn -0.3002 -0.8810 0.3658
vn -0.5601 0.4696 0.6825
vn -0.4036 -0.7715 0.4918
vn -0.4913 0.6326 0.5987
vn -0.4913 -0.6326 0.5987
vn -0.4036 0.7715 0.4918
vn -0.5601 -0.4696 0.6825
vn -0.3002 0.8810 0.3658
vn -0.6073 -0.2890 0.7400
vn -0.2999 -0.7715 0.5611
vn -0.3651 0.6326 0.6831
vn -0.3651 -0.6326 0.6831
vn -0.2999 0.7715 0.5611
vn -0.4162 -0.4696 0.7786
vn -0.2231 0.8810 0.4173
vn -0.2230 0.8810 0.4173
vn -0.4513 -0.2890 0.8443
vn -0.1374 0.9565 0.2571
vn -0.4691 -0.0975 0.8777
vn -0.0464 -0.9951 0.0869
vn -0.0464 0.9951 0.0869
vn -0.4691 0.0975 0.8777
vn -0.1374 -0.9565 0.2571
vn -0.4513 0.2890 0.8443
vn -0.2230 -0.8810 0.4173
vn -0.2231 -0.8810 0.4173
vn -0.4162 0.4696 0.7786
vn -0.2889 -0.0975 0.9524
vn -0.0286 -0.9951 0.0942
vn -0.0286 0.9951 0.0942
vn -0.2889 0.0975 0.9524
vn -0.0846 -0.9565 0.2790
vn -0.2779 0.2890 0.9161
vn -0.1374 -0.8810 0.4528
vn -0.2563 0.4696 0.8448
vn -0.1847 -0.7715 0.6088
vn -0.2248 0.6326 0.7412
vn -0.2248 -0.6326 0.7412
vn -0.1847 0.7715 0.6088
vn -0.2563 -0.4696 0.8448
vn -0.1374 0.8810 0.4528
vn -0.2779 -0.2890 0.9161
vn -0.0846 0.9565 0.2790
vn -0.0759 0.6326 0.7708
vn -0.0759 -0.6326 0.7708
vn -0.0624 0.7715 0.6332
vn -0.0865 -0.4696 0.8786
vn -0.0464 0.8810 0.4709
vn -0.0938 -0.2890 0.9527
vn -0.0286 0.9565 0.2902
vn -0.0976 -0.0975 0.9904
vn -0.0097 -0.9951 0.0980
vn -0.0097 0.9951 0.0980
vn -0.0976 0.0975 0.9904
vn -0.0286 -0.9565 0.2902
vn -0.0938 0.2890 0.9527
vn -0.0464 -0.8810 0.4709
vn -0.0865 0.4696 0.8786
vn -0.0624 -0.7715 0.6332
vn 0.2254 0.9566 -0.1850
vn -0.0976 -0.0975 -0.9904
vn -0.0976 0.0975 -0.9904
vn -0.0846 0.9566 0.2790
vn -0.0976 -0.0976 0.9904
vt 0.750000 0.750000
vt 0.750000 0.812500
vt 0.718750 0.812500
vt 0.718750 0.250000
vt 0.750000 0.250000
vt 0.750000 0.312500
vt 0.718750 0.687500
vt 0.750000 0.687500
vt 0.718750 0.187500
vt 0.750000 0.187500
vt 0.750000 0.625000
vt 0.718750 0.125000
vt 0.750000 0.125000
vt 0.750000 0.562500
vt 0.718750 0.625000
vt 0.718750 0.062500
vt 0.750000 0.062500
vt 0.718750 0.500000
vt 0.750000 0.500000
vt 0.750000 0.937500
vt 0.734375 1.000000
vt 0.718750 0.937500
vt 0.734375 0.000000
vt 0.718750 0.437500
vt 0.750000 0.437500
vt 0.750000 0.875000
vt 0.718750 0.375000
vt 0.750000 0.375000
vt 0.718750 0.875000
vt 0.718750 0.312500
vt 0.687500 0.812500
vt 0.687500 0.312500
vt 0.687500 0.750000
vt 0.718750 0.750000
vt 0.687500 0.250000
vt 0.687500 0.687500
vt 0.687500 0.625000
vt 0.687500 0.187500
vt 0.718750 0.562500
vt 0.687500 0.062500
vt 0.687500 0.500000
vt 0.703125 1.000000
vt 0.687500 0.937500
vt 0.703125 0.000000
vt 0.687500 0.437500
vt 0.687500 0.875000
vt 0.687500 0.375000
vt 0.687500 0.562500
vt 0.656250 0.625000
vt 0.687500 0.125000
vt 0.656250 0.125000
vt 0.656250 0.500000
vt 0.671875 1.000000
vt 0.656250 0.937500
vt 0.671875 0.000000
vt 0.656250 0.062500
vt 0.656250 0.875000
vt 0.656250 0.375000
vt 0.656250 0.812500
vt 0.656250 0.750000
vt 0.656250 0.312500
vt 0.656250 0.687500
vt 0.656250 0.250000
vt 0.625000 0.375000
vt 0.625000 0.750000
vt 0.625000 0.250000
vt 0.625000 0.687500
vt 0.625000 0.187500
vt 0.656250 0.187500
vt 0.625000 0.625000
vt 0.656250 0.562500
vt 0.625000 0.062500
vt 0.625000 0.500000
vt 0.640625 1.000000
vt 0.625000 0.937500
vt 0.640625 0.000000
vt 0.625000 0.437500
vt 0.656250 0.437500
vt 0.625000 0.875000
vt 0.625000 0.812500
vt 0.593750 0.062500
vt 0.625000 0.125000
vt 0.625000 0.562500
vt 0.593750 0.562500
vt 0.609375 1.000000
vt 0.593750 0.937500
vt 0.609375 0.000000
vt 0.593750 0.437500
vt 0.593750 0.875000
vt 0.593750 0.375000
vt 0.593750 0.812500
vt 0.625000 0.312500
vt 0.593750 0.750000
vt 0.593750 0.250000
vt 0.593750 0.625000
vt 0.593750 0.125000
vt 0.562500 0.812500
vt 0.562500 0.250000
vt 0.593750 0.312500
vt 0.593750 0.687500
vt 0.562500 0.750000
vt 0.562500 0.187500
vt 0.593750 0.187500
vt 0.562500 0.625000
vt 0.562500 0.125000
vt 0.593750 0.500000
vt 0.562500 0.562500
vt 0.578125 1.000000
vt 0.562500 0.937500
vt 0.578125 0.000000
vt 0.562500 0.062500
vt 0.562500 0.437500
vt 0.562500 0.875000
vt 0.562500 0.375000
vt 0.562500 0.500000
vt 0.531250 0.562500
vt 0.546875 1.000000
vt 0.531250 0.937500
vt 0.546875 0.000000
vt 0.531250 0.062500
vt 0.531250 0.437500
vt 0.531250 0.875000
vt 0.531250 0.375000
vt 0.531250 0.812500
vt 0.562500 0.312500
vt 0.531250 0.750000
vt 0.531250 0.250000
vt 0.562500 0.687500
vt 0.531250 0.625000
vt 0.531250 0.187500
vt 0.500000 0.250000
vt 0.531250 0.312500
vt 0.531250 0.687500
vt 0.500000 0.750000
vt 0.500000 0.625000
vt 0.500000 0.125000
vt 0.531250 0.125000
vt 0.531250 0.500000
vt 0.500000 0.562500
vt 0.515625 1.000000
vt 0.500000 0.937500
vt 0.515625 0.000000
vt 0.500000 0.062500
vt 0.500000 0.437500
vt 0.500000 0.875000
vt 0.500000 0.375000
vt 0.500000 0.812500
vt 0.484375 0.000000
vt 0.468750 0.062500
vt 0.468750 0.437500
vt 0.500000 0.500000
vt 0.468750 0.937500
vt 0.468750 0.375000
vt 0.468750 0.812500
vt 0.500000 0.312500
vt 0.468750 0.750000
vt 0.468750 0.250000
vt 0.500000 0.687500
vt 0.500000 0.187500
vt 0.468750 0.625000
vt 0.468750 0.125000
vt 0.468750 0.562500
vt 0.484375 1.000000
vt 0.468750 0.187500
vt 0.437500 0.250000
vt 0.437500 0.625000
vt 0.468750 0.687500
vt 0.437500 0.125000
vt 0.437500 0.062500
vt 0.468750 0.500000
vt 0.437500 0.562500
vt 0.453125 1.000000
vt 0.437500 0.937500
vt 0.453125 0.000000
vt 0.437500 0.437500
vt 0.437500 0.875000
vt 0.468750 0.875000
vt 0.437500 0.375000
vt 0.437500 0.812500
vt 0.468750 0.312500
vt 0.437500 0.750000
vt 0.406250 0.875000
vt 0.406250 0.375000
vt 0.437500 0.312500
vt 0.406250 0.750000
vt 0.406250 0.250000
vt 0.437500 0.687500
vt 0.437500 0.187500
vt 0.406250 0.625000
vt 0.406250 0.125000
vt 0.437500 0.500000
vt 0.406250 0.562500
vt 0.421875 1.000000
vt 0.406250 0.937500
vt 0.421875 0.000000
vt 0.406250 0.062500
vt 0.406250 0.437500
vt 0.375000 0.625000
vt 0.406250 0.687500
vt 0.375000 0.125000
vt 0.406250 0.187500
vt 0.406250 0.500000
vt 0.375000 0.562500
vt 0.390625 1.000000
vt 0.375000 0.937500
vt 0.390625 0.000000
vt 0.375000 0.062500
vt 0.375000 0.437500
vt 0.375000 0.875000
vt 0.375000 0.375000
vt 0.375000 0.812500
vt 0.406250 0.812500
vt 0.406250 0.312500
vt 0.375000 0.750000
vt 0.375000 0.250000
vt 0.343750 0.375000
vt 0.343750 0.875000
vt 0.375000 0.312500
vt 0.343750 0.750000
vt 0.343750 0.250000
vt 0.375000 0.687500
vt 0.375000 0.187500
vt 0.343750 0.625000
vt 0.343750 0.125000
vt 0.343750 0.062500
vt 0.375000 0.500000
vt 0.343750 0.562500
vt 0.359375 1.000000
vt 0.343750 0.937500
vt 0.359375 0.000000
vt 0.343750 0.437500
vt 0.312500 0.125000
vt 0.343750 0.187500
vt 0.312500 0.625000
vt 0.312500 0.062500
vt 0.343750 0.500000
vt 0.312500 0.562500
vt 0.328125 1.000000
vt 0.312500 0.937500
vt 0.328125 0.000000
vt 0.312500 0.437500
vt 0.312500 0.875000
vt 0.312500 0.375000
vt 0.312500 0.812500
vt 0.343750 0.812500
vt 0.343750 0.312500
vt 0.312500 0.750000
vt 0.312500 0.250000
vt 0.343750 0.687500
vt 0.281250 0.812500
vt 0.312500 0.312500
vt 0.281250 0.375000
vt 0.281250 0.750000
vt 0.281250 0.250000
vt 0.312500 0.687500
vt 0.312500 0.187500
vt 0.281250 0.625000
vt 0.281250 0.125000
vt 0.281250 0.062500
vt 0.312500 0.500000
vt 0.281250 0.562500
vt 0.296875 1.000000
vt 0.281250 0.937500
vt 0.296875 0.000000
vt 0.281250 0.437500
vt 0.281250 0.875000
vt 0.250000 0.625000
vt 0.250000 0.062500
vt 0.281250 0.500000
vt 0.250000 0.562500
vt 0.265625 1.000000
vt 0.250000 0.937500
vt 0.265625 0.000000
vt 0.250000 0.437500
vt 0.250000 0.875000
vt 0.250000 0.375000
vt 0.250000 0.812500
vt 0.281250 0.312500
vt 0.250000 0.750000
vt 0.250000 0.250000
vt 0.281250 0.687500
vt 0.281250 0.187500
vt 0.250000 0.125000
vt 0.250000 0.312500
vt 0.218750 0.375000
vt 0.218750 0.750000
vt 0.218750 0.250000
vt 0.250000 0.687500
vt 0.250000 0.187500
vt 0.218750 0.625000
vt 0.218750 0.125000
vt 0.250000 0.500000
vt 0.218750 0.562500
vt 0.234375 1.000000
vt 0.218750 0.937500
vt 0.234375 0.000000
vt 0.218750 0.062500
vt 0.218750 0.437500
vt 0.218750 0.875000
vt 0.218750 0.812500
vt 0.187500 0.062500
vt 0.218750 0.500000
vt 0.187500 0.562500
vt 0.203125 1.000000
vt 0.187500 0.937500
vt 0.203125 0.000000
vt 0.187500 0.437500
vt 0.187500 0.375000
vt 0.187500 0.812500
vt 0.218750 0.312500
vt 0.187500 0.750000
vt 0.187500 0.250000
vt 0.218750 0.687500
vt 0.218750 0.187500
vt 0.187500 0.625000
vt 0.187500 0.187500
vt 0.156250 0.250000
vt 0.187500 0.312500
vt 0.187500 0.687500
vt 0.156250 0.750000
vt 0.156250 0.625000
vt 0.187500 0.125000
vt 0.156250 0.187500
vt 0.156250 0.062500
vt 0.187500 0.500000
vt 0.156250 0.562500
vt 0.171875 1.000000
vt 0.156250 0.937500
vt 0.171875 0.000000
vt 0.156250 0.437500
vt 0.156250 0.875000
vt 0.187500 0.875000
vt 0.156250 0.375000
vt 0.156250 0.812500
vt 0.140625 1.000000
vt 0.125000 0.937500
vt 0.140625 0.000000
vt 0.125000 0.062500
vt 0.125000 0.437500
vt 0.156250 0.500000
vt 0.125000 0.875000
vt 0.125000 0.375000
vt 0.156250 0.312500
vt 0.125000 0.750000
vt 0.125000 0.250000
vt 0.156250 0.687500
vt 0.125000 0.625000
vt 0.125000 0.125000
vt 0.156250 0.125000
vt 0.125000 0.562500
vt 0.125000 0.687500
vt 0.093750 0.750000
vt 0.125000 0.187500
vt 0.093750 0.250000
vt 0.093750 0.625000
vt 0.093750 0.125000
vt 0.093750 0.062500
vt 0.125000 0.500000
vt 0.093750 0.562500
vt 0.109375 1.000000
vt 0.093750 0.937500
vt 0.109375 0.000000
vt 0.093750 0.437500
vt 0.093750 0.375000
vt 0.125000 0.812500
vt 0.093750 0.875000
vt 0.125000 0.312500
vt 0.062500 0.437500
vt 0.093750 0.500000
vt 0.062500 0.875000
vt 0.062500 0.375000
vt 0.093750 0.812500
vt 0.093750 0.312500
vt 0.062500 0.750000
vt 0.062500 0.250000
vt 0.093750 0.687500
vt 0.093750 0.187500
vt 0.062500 0.625000
vt 0.062500 0.187500
vt 0.062500 0.062500
vt 0.062500 0.562500
vt 0.078125 1.000000
vt 0.062500 0.937500
vt 0.078125 0.000000
vt 0.031250 0.250000
vt 0.031250 0.625000
vt 0.062500 0.687500
vt 0.031250 0.125000
vt 0.062500 0.125000
vt 0.062500 0.500000
vt 0.031250 0.562500
vt 0.046875 1.000000
vt 0.031250 0.937500
vt 0.046875 0.000000
vt 0.031250 0.062500
vt 0.031250 0.437500
vt 0.031250 0.375000
vt 0.031250 0.812500
vt 0.062500 0.812500
vt 0.062500 0.312500
vt 0.031250 0.750000
vt 0.000000 0.875000
vt 0.031250 0.875000
vt 0.000000 0.375000
vt 0.000000 0.812500
vt 0.031250 0.312500
vt 0.000000 0.750000
vt 0.000000 0.250000
vt 0.031250 0.687500
vt 0.031250 0.187500
vt 0.000000 0.625000
vt 0.000000 0.125000
vt 0.000000 0.062500
vt 0.031250 0.500000
vt 0.000000 0.562500
vt 0.015625 1.000000
vt 0.000000 0.937500
vt 0.015625 0.000000
vt 0.000000 0.437500
vt 0.968750 0.625000
vt 1.000000 0.625000
vt 1.000000 0.687500
vt 0.968750 0.125000
vt 1.000000 0.125000
vt 1.000000 0.187500
vt 1.000000 0.562500
vt 0.968750 0.062500
vt 1.000000 0.062500
vt 1.000000 0.500000
vt 0.968750 0.562500
vt 1.000000 0.937500
vt 0.984375 1.000000
vt 0.968750 0.937500
vt 0.984375 0.000000
vt 0.968750 0.437500
vt 1.000000 0.437500
vt 1.000000 0.875000
vt 0.968750 0.375000
vt 1.000000 0.375000
vt 1.000000 0.812500
vt 0.968750 0.875000
vt 1.000000 0.312500
vt 0.968750 0.750000
vt 1.000000 0.750000
vt 0.968750 0.250000
vt 1.000000 0.250000
vt 0.937500 0.375000
vt 0.968750 0.812500
vt 0.937500 0.875000
vt 0.968750 0.312500
vt 0.937500 0.750000
vt 0.937500 0.250000
vt 0.968750 0.687500
vt 0.968750 0.187500
vt 0.937500 0.625000
vt 0.937500 0.125000
vt 0.937500 0.062500
vt 0.968750 0.500000
vt 0.937500 0.562500
vt 0.953125 1.000000
vt 0.937500 0.937500
vt 0.953125 0.000000
vt 0.937500 0.437500
vt 0.937500 0.187500
vt 0.906250 0.187500
vt 0.906250 0.625000
vt 0.906250 0.062500
vt 0.937500 0.500000
vt 0.906250 0.562500
vt 0.921875 1.000000
vt 0.906250 0.937500
vt 0.921875 0.000000
vt 0.906250 0.437500
vt 0.906250 0.375000
vt 0.906250 0.812500
vt 0.937500 0.812500
vt 0.937500 0.312500
vt 0.906250 0.750000
vt 0.906250 0.250000
vt 0.937500 0.687500
vt 0.906250 0.312500
vt 0.875000 0.375000
vt 0.875000 0.750000
vt 0.875000 0.250000
vt 0.906250 0.687500
vt 0.875000 0.625000
vt 0.875000 0.125000
vt 0.906250 0.125000
vt 0.906250 0.500000
vt 0.875000 0.562500
vt 0.890625 1.000000
vt 0.875000 0.937500
vt 0.890625 0.000000
vt 0.875000 0.062500
vt 0.875000 0.437500
vt 0.875000 0.875000
vt 0.906250 0.875000
vt 0.843750 0.062500
vt 0.875000 0.500000
vt 0.843750 0.562500
vt 0.859375 1.000000
vt 0.843750 0.937500
vt 0.859375 0.000000
vt 0.843750 0.437500
vt 0.843750 0.875000
vt 0.843750 0.375000
vt 0.875000 0.812500
vt 0.875000 0.312500
vt 0.843750 0.750000
vt 0.843750 0.250000
vt 0.875000 0.687500
vt 0.875000 0.187500
vt 0.843750 0.625000
vt 0.843750 0.125000
vt 0.812500 0.750000
vt 0.843750 0.812500
vt 0.812500 0.250000
vt 0.843750 0.312500
vt 0.843750 0.687500
vt 0.843750 0.187500
vt 0.812500 0.625000
vt 0.812500 0.125000
vt 0.812500 0.062500
vt 0.843750 0.500000
vt 0.812500 0.562500
vt 0.828125 1.000000
vt 0.812500 0.937500
vt 0.828125 0.000000
vt 0.812500 0.437500
vt 0.812500 0.875000
vt 0.812500 0.375000
vt 0.812500 0.500000
vt 0.781250 0.562500
vt 0.796875 1.000000
vt 0.781250 0.937500
vt 0.796875 0.000000
vt 0.781250 0.062500
vt 0.781250 0.437500
vt 0.781250 0.875000
vt 0.781250 0.375000
vt 0.812500 0.812500
vt 0.812500 0.312500
vt 0.781250 0.750000
vt 0.781250 0.250000
vt 0.812500 0.687500
vt 0.812500 0.187500
vt 0.781250 0.625000
vt 0.781250 0.125000
vt 0.781250 0.312500
vt 0.781250 0.687500
vt 0.781250 0.187500
vt 0.781250 0.500000
vt 0.765625 1.000000
vt 0.765625 0.000000
vt 0.781250 0.812500
vt 0.000000 0.312500
vt 0.000000 0.687500
vt 0.000000 0.187500
vt 0.000000 0.500000
s 1
usemtl マテリアル
f 476/1/1 1/2/1 9/3/1
f 18/4/2 479/5/2 6/6/2
f 11/7/3 2/8/3 476/1/3
f 19/9/4 480/10/4 479/5/4
f 477/11/5 2/8/5 11/7/5
f 20/12/6 481/13/6 480/10/6
f 3/14/7 477/11/7 12/15/7
f 21/16/8 482/17/8 481/13/8
f 14/18/9 4/19/10 3/14/9
f 474/20/11 82/21/11 7/22/11
f 308/23/12 482/17/12 21/16/12
f 15/24/13 5/25/13 4/19/13
f 475/26/14 474/20/14 7/22/14
f 16/27/15 478/28/15 5/25/15
f 1/2/16 475/26/16 8/29/16
f 17/30/17 6/6/17 478/28/17
f 24/31/18 9/3/18 8/29/18
f 32/32/19 17/30/19 16/27/19
f 25/33/20 10/34/20 9/3/20
f 33/35/21 18/4/21 17/30/21
f 26/36/22 11/7/22 10/34/22
f 19/9/23 18/4/23 33/35/23
f 27/37/24 12/15/24 11/7/24
f 20/12/25 19/9/25 34/38/25
f 13/39/26 12/15/26 27/37/26
f 36/40/27 21/16/27 20/12/27
f 29/41/28 14/18/28 13/39/28
f 7/22/29 82/42/29 22/43/29
f 308/44/30 21/16/30 36/40/30
f 30/45/31 15/24/31 14/18/31
f 23/46/32 8/29/32 7/22/32
f 31/47/33 16/27/33 15/24/33
f 28/48/34 27/37/34 42/49/34
f 36/40/35 35/50/35 50/51/35
f 44/52/36 29/41/36 28/48/36
f 22/43/37 82/53/37 37/54/37
f 308/55/38 36/40/38 51/56/38
f 30/45/39 29/41/39 44/52/39
f 38/57/40 23/46/40 22/43/40
f 46/58/41 31/47/41 30/45/41
f 39/59/42 24/31/42 23/46/42
f 32/32/43 31/47/43 46/58/43
f 40/60/44 25/33/44 24/31/44
f 33/35/45 32/32/45 47/61/45
f 41/62/46 26/36/46 25/33/46
f 34/38/47 33/35/47 48/63/47
f 42/49/48 27/37/48 26/36/48
f 50/51/49 35/50/49 34/38/50
f 47/61/51 46/58/51 61/64/51
f 55/65/52 40/60/52 39/59/52
f 63/66/53 48/63/53 47/61/53
f 56/67/54 41/62/54 40/60/54
f 64/68/55 49/69/55 48/63/55
f 57/70/56 42/49/56 41/62/56
f 50/51/57 49/69/57 64/68/57
f 43/71/58 42/49/58 57/70/58
f 66/72/59 51/56/59 50/51/59
f 59/73/60 44/52/60 43/71/60
f 37/54/61 82/74/61 52/75/61
f 308/76/62 51/56/62 66/72/62
f 60/77/63 45/78/63 44/52/63
f 53/79/64 38/57/64 37/54/64
f 61/64/65 46/58/65 45/78/65
f 54/80/66 39/59/66 38/57/66
f 81/81/67 66/72/67 65/82/67
f 59/73/68 58/83/68 73/84/68
f 52/75/69 82/85/69 67/86/69
f 308/87/70 66/72/70 81/81/70
f 75/88/71 60/77/71 59/73/71
f 68/89/72 53/79/72 52/75/72
f 76/90/73 61/64/73 60/77/73
f 69/91/74 54/80/74 53/79/74
f 62/92/75 61/64/75 76/90/75
f 70/93/76 55/65/76 54/80/76
f 78/94/77 63/66/77 62/92/77
f 56/67/78 55/65/78 70/93/78
f 64/68/79 63/66/79 78/94/79
f 72/95/80 57/70/80 56/67/80
f 80/96/81 65/82/81 64/68/81
f 58/83/82 57/70/82 72/95/82
f 70/93/83 69/91/83 85/97/83
f 94/98/84 78/94/84 77/99/84
f 71/100/85 70/93/85 86/101/85
f 95/102/86 79/103/86 78/94/86
f 88/104/87 72/95/87 71/100/87
f 96/105/88 80/96/88 79/103/88
f 73/84/89 72/95/89 88/104/89
f 81/81/90 80/96/90 96/105/90
f 74/106/91 73/84/91 89/107/91
f 67/86/92 82/108/92 83/109/92
f 308/110/93 81/81/93 97/111/93
f 91/112/94 75/88/94 74/106/94
f 84/113/95 68/89/95 67/86/95
f 92/114/96 76/90/96 75/88/96
f 85/97/97 69/91/97 68/89/98
f 77/99/99 76/90/99 92/114/99
f 90/115/100 89/107/100 104/116/100
f 83/109/101 82/117/101 98/118/101
f 308/119/102 97/111/102 112/120/102
f 106/121/103 91/112/103 90/115/103
f 99/122/104 84/113/104 83/109/104
f 107/123/105 92/114/105 91/112/105
f 100/124/106 85/97/106 84/113/106
f 93/125/107 92/114/107 107/123/107
f 101/126/108 86/101/108 85/97/108
f 109/127/109 94/98/109 93/125/109
f 87/128/110 86/101/110 101/126/110
f 95/102/111 94/98/111 109/127/111
f 103/129/112 88/104/112 87/128/112
f 96/105/113 95/102/113 110/130/113
f 89/107/114 88/104/114 103/129/114
f 112/120/115 97/111/115 96/105/115
f 124/131/116 109/127/116 108/132/116
f 102/133/117 101/126/117 116/134/117
f 110/130/118 109/127/118 124/131/118
f 118/135/119 103/129/119 102/133/119
f 126/136/120 111/137/120 110/130/120
f 104/116/121 103/129/121 118/135/121
f 112/120/122 111/137/122 126/136/122
f 105/138/123 104/116/123 119/139/123
f 98/118/124 82/140/124 113/141/124
f 308/142/125 112/120/125 127/143/125
f 121/144/126 106/121/126 105/138/126
f 114/145/127 99/122/127 98/118/127
f 122/146/128 107/123/128 106/121/128
f 115/147/129 100/124/129 99/122/129
f 108/132/130 107/123/130 122/146/130
f 116/134/131 101/126/131 100/124/131
f 308/148/132 127/143/132 142/149/132
f 136/150/133 121/144/133 120/151/133
f 114/145/134 113/141/134 128/152/134
f 137/153/135 122/146/135 121/144/135
f 130/154/136 115/147/136 114/145/136
f 123/155/137 122/146/137 137/153/137
f 131/156/138 116/134/138 115/147/138
f 139/157/139 124/131/139 123/155/139
f 117/158/140 116/134/140 131/156/140
f 125/159/141 124/131/141 139/157/141
f 133/160/142 118/135/142 117/158/142
f 141/161/143 126/136/143 125/159/143
f 119/139/144 118/135/144 133/160/144
f 142/149/145 127/143/145 126/136/145
f 120/151/146 119/139/146 134/162/146
f 113/141/147 82/163/147 128/152/147
f 140/164/148 139/157/148 154/165/148
f 148/166/149 133/160/149 132/167/149
f 156/168/150 141/161/150 140/164/150
f 134/162/151 133/160/151 148/166/151
f 157/169/152 142/149/152 141/161/152
f 135/170/153 134/162/153 149/171/153
f 128/152/154 82/172/154 143/173/154
f 308/174/155 142/149/155 157/169/155
f 151/175/156 136/150/156 135/170/156
f 144/176/157 129/177/157 128/152/157
f 152/178/158 137/153/158 136/150/158
f 145/179/159 130/154/159 129/177/159
f 138/180/160 137/153/160 152/178/160
f 146/181/161 131/156/161 130/154/161
f 154/165/162 139/157/162 138/180/162
f 132/167/163 131/156/163 146/181/163
f 159/182/164 144/176/164 143/173/164
f 167/183/165 152/178/165 151/175/165
f 145/179/166 144/176/167 159/182/167
f 153/184/168 152/178/168 167/183/168
f 161/185/169 146/181/169 145/179/169
f 169/186/170 154/165/170 153/184/170
f 147/187/171 146/181/171 161/185/171
f 155/188/172 154/165/172 169/186/172
f 163/189/173 148/166/173 147/187/173
f 171/190/174 156/168/174 155/188/175
f 149/171/176 148/166/176 163/189/176
f 157/169/177 156/168/177 171/190/177
f 150/191/178 149/171/178 164/192/178
f 143/173/179 82/193/179 158/194/179
f 308/195/180 157/169/180 172/196/180
f 166/197/181 151/175/181 150/191/181
f 178/198/182 163/189/182 162/199/182
f 186/200/183 171/190/183 170/201/183
f 164/192/184 163/189/184 178/198/184
f 172/196/185 171/190/185 186/200/185
f 165/202/186 164/192/186 179/203/186
f 158/194/187 82/204/187 173/205/187
f 308/206/188 172/196/188 187/207/188
f 181/208/189 166/197/189 165/202/189
f 174/209/190 159/182/190 158/194/190
f 182/210/191 167/183/191 166/197/191
f 175/211/192 160/212/192 159/182/192
f 168/213/193 167/183/193 182/210/193
f 176/214/194 161/185/194 160/212/194
f 184/215/195 169/186/195 168/213/195
f 162/199/196 161/185/196 176/214/196
f 170/201/197 169/186/197 184/215/197
f 197/216/198 182/210/198 181/208/198
f 175/211/199 174/209/199 189/217/199
f 183/218/200 182/210/200 197/216/200
f 191/219/201 176/214/201 175/211/201
f 199/220/202 184/215/202 183/218/202
f 177/221/203 176/214/203 191/219/203
f 185/222/204 184/215/204 199/220/204
f 193/223/205 178/198/205 177/221/205
f 201/224/206 186/200/206 185/222/206
f 179/203/207 178/198/207 193/223/207
f 202/225/208 187/207/208 186/200/208
f 180/226/209 179/203/209 194/227/209
f 173/205/210 82/228/210 188/229/210
f 308/230/211 187/207/211 202/225/211
f 196/231/212 181/208/212 180/226/212
f 174/209/213 173/205/213 188/229/213
f 216/232/214 201/224/214 200/233/215
f 194/227/216 193/223/216 208/234/216
f 217/235/217 202/225/217 201/224/217
f 195/236/218 194/227/218 209/237/218
f 188/229/219 82/238/219 203/239/219
f 308/240/220 202/225/220 217/235/220
f 211/241/221 196/231/221 195/236/221
f 204/242/222 189/217/222 188/229/222
f 212/243/223 197/216/223 196/231/223
f 205/244/224 190/245/224 189/217/224
f 198/246/225 197/216/225 212/243/225
f 206/247/226 191/219/226 190/245/226
f 214/248/227 199/220/227 198/246/227
f 192/249/228 191/219/228 206/247/228
f 200/233/229 199/220/229 214/248/229
f 208/234/230 193/223/230 192/249/230
f 220/250/231 205/244/231 204/242/231
f 213/251/232 212/243/232 227/252/232
f 221/253/233 206/247/233 205/244/233
f 229/254/234 214/248/234 213/251/234
f 207/255/235 206/247/235 221/253/235
f 215/256/236 214/248/236 229/254/236
f 223/257/237 208/234/237 207/255/237
f 231/258/238 216/232/238 215/256/238
f 209/237/239 208/234/239 223/257/239
f 232/259/240 217/235/240 216/232/240
f 210/260/241 209/237/241 224/261/241
f 203/239/242 82/262/242 218/263/242
f 308/264/243 217/235/243 232/259/243
f 226/265/244 211/241/244 210/260/244
f 219/266/245 204/242/245 203/239/245
f 227/252/246 212/243/246 211/241/246
f 224/261/247 223/257/247 238/267/247
f 247/268/248 232/259/248 231/258/248
f 225/269/249 224/261/249 239/270/249
f 218/263/250 82/271/250 233/272/250
f 308/273/251 232/259/251 247/268/251
f 241/274/252 226/265/252 225/269/252
f 234/275/253 219/266/253 218/263/253
f 242/276/254 227/252/254 226/265/254
f 235/277/255 220/250/255 219/266/255
f 228/278/256 227/252/256 242/276/256
f 236/279/257 221/253/257 220/250/257
f 244/280/258 229/254/258 228/278/258
f 222/281/259 221/253/259 236/279/259
f 230/282/260 229/254/260 244/280/260
f 238/267/261 223/257/261 222/281/261
f 246/283/262 231/258/262 230/282/262
f 243/284/263 242/276/263 257/285/263
f 251/286/264 236/279/264 235/277/264
f 259/287/265 244/280/265 243/284/265
f 237/288/266 236/279/266 251/286/266
f 245/289/267 244/280/267 259/287/267
f 253/290/268 238/267/268 237/288/268
f 261/291/269 246/283/269 245/289/269
f 239/270/270 238/267/270 253/290/270
f 247/268/271 246/283/271 261/291/271
f 240/292/272 239/270/272 254/293/272
f 233/272/273 82/294/273 248/295/273
f 308/296/274 247/268/274 262/297/274
f 256/298/275 241/274/275 240/292/275
f 249/299/276 234/275/276 233/272/276
f 257/285/277 242/276/277 241/274/277
f 250/300/278 235/277/278 234/275/278
f 277/301/279 262/297/279 261/291/279
f 255/302/280 254/293/280 269/303/280
f 248/295/281 82/304/281 263/305/281
f 308/306/282 262/297/282 277/301/282
f 271/307/283 256/298/283 255/302/283
f 249/299/284 248/295/284 263/305/284
f 272/308/285 257/285/285 256/298/285
f 265/309/286 250/300/286 249/299/286
f 258/310/287 257/285/287 272/308/287
f 266/311/288 251/286/288 250/300/288
f 274/312/289 259/287/289 258/310/289
f 252/313/290 251/286/290 266/311/290
f 260/314/291 259/287/291 274/312/291
f 268/315/292 253/290/292 252/313/292
f 261/291/293 260/314/293 275/316/293
f 254/293/294 253/290/294 268/315/294
f 289/317/295 274/312/295 273/318/295
f 267/319/296 266/311/296 281/320/296
f 275/316/297 274/312/297 289/317/297
f 283/321/298 268/315/298 267/319/298
f 276/322/299 275/316/299 290/323/299
f 269/303/300 268/315/300 283/321/300
f 292/324/301 277/301/301 276/322/301
f 270/325/302 269/303/302 284/326/302
f 263/305/303 82/327/303 278/328/303
f 308/329/304 277/301/304 292/324/304
f 286/330/305 271/307/305 270/325/305
f 279/331/306 264/332/306 263/305/306
f 287/333/307 272/308/307 271/307/307
f 280/334/308 265/309/308 264/332/308
f 273/318/309 272/308/309 287/333/309
f 281/320/310 266/311/310 265/309/310
f 278/328/311 82/335/311 293/336/311
f 308/337/312 292/324/312 307/338/312
f 301/339/313 286/330/313 285/340/313
f 294/341/314 279/331/314 278/328/314
f 302/342/315 287/333/315 286/330/315
f 280/334/316 279/331/316 294/341/316
f 288/343/317 287/333/317 302/342/317
f 296/344/318 281/320/318 280/334/318
f 304/345/319 289/317/319 288/343/319
f 282/346/320 281/320/320 296/344/320
f 290/323/321 289/317/321 304/345/321
f 298/347/322 283/321/322 282/346/322
f 306/348/323 291/349/323 290/323/323
f 284/326/324 283/321/324 298/347/324
f 307/338/325 292/324/325 291/349/325
f 285/340/326 284/326/326 299/350/326
f 297/351/327 296/344/327 312/352/327
f 305/353/328 304/345/328 320/354/328
f 314/355/329 298/347/329 297/351/329
f 322/356/330 306/348/330 305/353/330
f 299/350/331 298/347/331 314/355/331
f 323/357/332 307/338/332 306/348/332
f 300/358/333 299/350/333 315/359/333
f 293/336/334 82/360/334 309/361/334
f 308/362/335 307/338/335 323/357/335
f 317/363/336 301/339/336 300/358/336
f 294/341/337 293/336/337 309/361/337
f 318/364/338 302/342/338 301/339/338
f 295/365/339 294/341/339 310/366/339
f 303/367/340 302/342/340 318/364/340
f 312/352/341 296/344/341 295/365/341
f 320/354/342 304/345/342 303/367/342
f 332/368/343 317/363/343 316/369/343
f 325/370/344 310/366/344 309/361/344
f 333/371/345 318/364/345 317/363/345
f 311/372/346 310/366/346 325/370/346
f 319/373/347 318/364/347 333/371/347
f 327/374/348 312/352/348 311/372/348
f 335/375/349 320/354/349 319/373/349
f 313/376/350 312/352/350 327/374/350
f 321/377/351 320/354/351 335/375/351
f 329/378/352 314/355/352 313/376/352
f 322/356/353 321/377/354 336/379/354
f 315/359/355 314/355/355 329/378/355
f 338/380/356 323/357/356 322/356/356
f 316/369/357 315/359/357 330/381/357
f 309/361/358 82/382/358 324/383/358
f 308/384/359 323/357/359 338/380/359
f 336/379/360 335/375/360 350/385/360
f 344/386/361 329/378/361 328/387/361
f 352/388/362 337/389/362 336/379/362
f 330/381/363 329/378/363 344/386/363
f 338/380/364 337/389/364 352/388/364
f 331/390/365 330/381/365 345/391/365
f 324/383/366 82/392/366 339/393/366
f 308/394/367 338/380/367 353/395/367
f 347/396/368 332/368/368 331/390/368
f 325/370/369 324/383/369 339/393/369
f 348/397/370 333/371/370 332/368/370
f 341/398/371 326/399/371 325/370/371
f 334/400/372 333/371/372 348/397/372
f 342/401/373 327/374/373 326/399/373
f 350/385/374 335/375/374 334/400/374
f 328/387/375 327/374/375 342/401/375
f 355/402/376 340/403/376 339/393/376
f 363/404/377 348/397/377 347/396/377
f 356/405/378 341/398/378 340/403/378
f 349/406/379 348/397/379 363/404/379
f 357/407/380 342/401/380 341/398/380
f 365/408/381 350/385/381 349/406/381
f 343/409/382 342/401/382 357/407/382
f 351/410/383 350/385/383 365/408/383
f 359/411/384 344/386/384 343/409/384
f 367/412/385 352/388/385 351/410/385
f 345/391/386 344/386/386 359/411/386
f 368/413/387 353/395/387 352/388/387
f 346/414/388 345/391/388 360/415/388
f 339/393/389 82/416/389 354/417/389
f 308/418/390 353/395/390 368/413/390
f 362/419/391 347/396/391 346/414/391
f 374/420/392 359/421/392 358/422/392
f 382/423/393 367/424/393 366/425/393
f 360/426/394 359/421/394 374/420/394
f 383/427/395 368/428/395 367/424/395
f 361/429/396 360/426/396 375/430/396
f 354/431/397 82/432/397 369/433/397
f 308/434/398 368/428/398 383/427/398
f 377/435/399 362/436/399 361/429/399
f 355/437/400 354/431/400 369/433/400
f 378/438/401 363/439/401 362/436/401
f 356/440/402 355/437/402 370/441/402
f 364/442/403 363/439/403 378/438/403
f 372/443/404 357/444/404 356/440/404
f 380/445/405 365/446/405 364/442/405
f 358/422/406 357/444/406 372/443/406
f 366/425/407 365/446/407 380/445/407
f 393/447/408 378/438/408 377/435/408
f 371/448/409 370/441/409 385/449/409
f 379/450/410 378/438/410 393/447/410
f 387/451/411 372/443/411 371/448/411
f 395/452/412 380/445/412 379/450/412
f 373/453/413 372/443/413 387/451/413
f 381/454/414 380/445/414 395/452/414
f 389/455/415 374/420/415 373/453/415
f 397/456/416 382/423/416 381/454/416
f 375/430/417 374/420/417 389/455/417
f 398/457/418 383/427/418 382/423/418
f 376/458/419 375/430/419 390/459/419
f 369/433/420 82/460/420 384/461/420
f 308/462/421 383/427/421 398/457/421
f 392/463/422 377/435/422 376/458/422
f 385/449/423 370/441/423 369/433/423
f 397/456/424 396/464/425 411/465/424
f 390/459/426 389/455/426 404/466/426
f 413/467/427 398/457/427 397/456/427
f 391/468/428 390/459/428 405/469/428
f 384/461/429 82/470/429 399/471/429
f 308/472/430 398/457/430 413/467/430
f 407/473/431 392/463/431 391/468/431
f 385/449/432 384/461/432 399/471/432
f 408/474/433 393/447/433 392/463/433
f 401/475/434 386/476/434 385/449/434
f 394/477/435 393/447/435 408/474/435
f 402/478/436 387/451/436 386/476/436
f 410/479/437 395/452/437 394/477/437
f 388/480/438 387/451/438 402/478/438
f 396/464/439 395/452/439 410/479/439
f 404/466/440 389/455/440 388/480/440
f 409/481/441 408/474/441 423/482/441
f 417/483/442 402/478/442 401/475/442
f 425/484/443 410/479/443 409/481/443
f 403/485/444 402/478/444 417/483/444
f 411/465/445 410/479/445 425/484/445
f 419/486/446 404/466/446 403/485/446
f 427/487/447 412/488/447 411/465/447
f 405/469/448 404/466/448 419/486/448
f 413/467/449 412/488/449 427/487/449
f 406/489/450 405/469/450 420/490/450
f 399/471/451 82/491/451 414/492/451
f 308/493/452 413/467/452 428/494/452
f 422/495/453 407/473/453 406/489/453
f 415/496/454 400/497/454 399/471/454
f 423/482/455 408/474/455 407/473/455
f 401/475/456 400/497/456 415/496/456
f 443/498/457 428/494/457 427/487/457
f 421/499/458 420/490/458 435/500/458
f 414/492/459 82/501/459 429/502/459
f 308/503/460 428/494/460 443/498/460
f 437/504/461 422/495/461 421/499/461
f 430/505/462 415/496/462 414/492/462
f 438/506/463 423/482/463 422/495/463
f 416/507/464 415/496/464 430/505/464
f 424/508/465 423/482/465 438/506/465
f 432/509/466 417/483/466 416/507/466
f 440/510/467 425/484/467 424/508/467
f 418/511/468 417/483/468 432/509/468
f 426/512/469 425/484/469 440/510/469
f 434/513/470 419/486/470 418/511/470
f 442/514/471 427/487/471 426/512/471
f 420/490/472 419/486/472 434/513/472
f 447/515/473 432/509/473 431/516/473
f 455/517/474 440/510/474 439/518/474
f 433/519/475 432/509/475 447/515/475
f 441/520/476 440/510/476 455/517/476
f 449/521/477 434/513/477 433/519/477
f 457/522/478 442/514/478 441/520/479
f 435/500/480 434/513/480 449/521/480
f 458/523/481 443/498/481 442/514/481
f 436/524/482 435/500/482 450/525/482
f 429/502/483 82/526/483 444/527/483
f 308/528/484 443/498/484 458/523/484
f 452/529/485 437/504/485 436/524/485
f 445/530/486 430/505/486 429/502/486
f 453/531/487 438/506/487 437/504/487
f 431/516/488 430/505/489 445/530/489
f 439/518/490 438/506/490 453/531/490
f 451/532/491 450/525/491 465/533/491
f 444/527/492 82/534/492 459/535/492
f 308/536/493 458/523/493 473/537/493
f 467/538/494 452/529/494 451/532/494
f 460/539/495 445/530/495 444/527/495
f 468/540/496 453/531/496 452/529/496
f 446/541/497 445/530/497 460/539/497
f 454/542/498 453/531/498 468/540/498
f 462/543/499 447/515/499 446/541/499
f 470/544/500 455/517/500 454/542/500
f 448/545/501 447/515/501 462/543/501
f 456/546/502 455/517/502 470/544/502
f 464/547/503 449/521/503 448/545/503
f 472/548/504 457/522/504 456/546/504
f 450/525/505 449/521/505 464/547/505
f 473/537/506 458/523/506 457/522/506
f 479/5/507 470/544/507 469/549/507
f 463/550/508 462/543/508 476/1/508
f 471/551/509 470/544/509 479/5/509
f 464/547/510 463/550/510 2/8/510
f 481/13/511 472/548/511 471/551/511
f 465/533/512 464/547/512 477/11/512
f 482/17/513 473/537/513 472/548/513
f 466/552/514 465/533/514 3/14/514
f 459/535/515 82/553/515 474/20/515
f 308/554/516 473/537/516 482/17/516
f 5/25/517 467/538/517 466/552/517
f 460/539/518 459/535/518 474/20/518
f 478/28/519 468/540/519 467/538/519
f 461/555/520 460/539/520 475/26/520
f 6/6/521 469/549/521 468/540/521
f 462/543/522 461/555/522 1/2/522
f 476/1/1 9/3/1 10/34/1
f 18/4/2 6/6/2 17/30/2
f 11/7/3 476/1/3 10/34/3
f 19/9/4 479/5/4 18/4/4
f 477/11/5 11/7/5 12/15/5
f 20/12/6 480/10/6 19/9/6
f 3/14/7 12/15/7 13/39/7
f 21/16/8 481/13/8 20/12/8
f 14/18/9 3/14/9 13/39/9
f 15/24/13 4/19/13 14/18/13
f 475/26/14 7/22/14 8/29/14
f 16/27/15 5/25/15 15/24/15
f 1/2/16 8/29/16 9/3/16
f 17/30/17 478/28/17 16/27/17
f 24/31/18 8/29/18 23/46/18
f 32/32/19 16/27/19 31/47/19
f 25/33/20 9/3/20 24/31/20
f 33/35/21 17/30/21 32/32/21
f 26/36/22 10/34/22 25/33/22
f 19/9/23 33/35/23 34/38/23
f 27/37/24 11/7/24 26/36/24
f 20/12/25 34/38/25 35/50/25
f 13/39/26 27/37/26 28/48/26
f 36/40/27 20/12/27 35/50/27
f 29/41/28 13/39/28 28/48/28
f 30/45/31 14/18/31 29/41/31
f 23/46/32 7/22/32 22/43/32
f 31/47/33 15/24/33 30/45/33
f 28/48/34 42/49/34 43/71/34
f 36/40/35 50/51/35 51/56/35
f 44/52/36 28/48/36 43/71/36
f 30/45/39 44/52/39 45/78/39
f 38/57/40 22/43/40 37/54/40
f 46/58/41 30/45/41 45/78/41
f 39/59/42 23/46/42 38/57/42
f 32/32/43 46/58/43 47/61/43
f 40/60/44 24/31/44 39/59/44
f 33/35/45 47/61/45 48/63/45
f 41/62/46 25/33/46 40/60/46
f 34/38/47 48/63/47 49/69/47
f 42/49/48 26/36/48 41/62/48
f 50/51/49 34/38/50 49/69/50
f 47/61/51 61/64/51 62/92/51
f 55/65/52 39/59/52 54/80/52
f 63/66/53 47/61/53 62/92/53
f 56/67/54 40/60/54 55/65/54
f 64/68/55 48/63/55 63/66/55
f 57/70/56 41/62/56 56/67/56
f 50/51/57 64/68/57 65/82/57
f 43/71/58 57/70/58 58/83/58
f 66/72/59 50/51/59 65/82/59
f 59/73/60 43/71/60 58/83/60
f 60/77/63 44/52/63 59/73/63
f 53/79/64 37/54/64 52/75/64
f 61/64/65 45/78/65 60/77/65
f 54/80/66 38/57/66 53/79/66
f 81/81/67 65/82/67 80/96/67
f 59/73/68 73/84/68 74/106/68
f 75/88/71 59/73/71 74/106/71
f 68/89/72 52/75/72 67/86/72
f 76/90/73 60/77/73 75/88/73
f 69/91/74 53/79/74 68/89/74
f 62/92/75 76/90/75 77/99/75
f 70/93/76 54/80/76 69/91/76
f 78/94/77 62/92/77 77/99/77
f 56/67/78 70/93/78 71/100/78
f 64/68/79 78/94/79 79/103/79
f 72/95/80 56/67/80 71/100/80
f 80/96/81 64/68/81 79/103/81
f 58/83/82 72/95/82 73/84/82
f 70/93/83 85/97/83 86/101/83
f 94/98/84 77/99/84 93/125/84
f 71/100/85 86/101/85 87/128/85
f 95/102/86 78/94/86 94/98/86
f 88/104/87 71/100/87 87/128/87
f 96/105/88 79/103/88 95/102/88
f 73/84/89 88/104/89 89/107/89
f 81/81/90 96/105/90 97/111/90
f 74/106/91 89/107/91 90/115/91
f 91/112/94 74/106/94 90/115/94
f 84/113/95 67/86/95 83/109/95
f 92/114/96 75/88/96 91/112/96
f 85/97/97 68/89/98 84/113/98
f 77/99/99 92/114/99 93/125/99
f 90/115/100 104/116/100 105/138/100
f 106/121/103 90/115/103 105/138/103
f 99/122/104 83/109/104 98/118/104
f 107/123/105 91/112/105 106/121/105
f 100/124/106 84/113/106 99/122/106
f 93/125/107 107/123/107 108/132/107
f 101/126/108 85/97/108 100/124/108
f 109/127/109 93/125/109 108/132/109
f 87/128/110 101/126/110 102/133/110
f 95/102/111 109/127/111 110/130/111
f 103/129/112 87/128/112 102/133/112
f 96/105/113 110/130/113 111/137/113
f 89/107/114 103/129/114 104/116/114
f 112/120/115 96/105/115 111/137/115
f 124/131/116 108/132/116 123/155/116
f 102/133/117 116/134/117 117/158/117
f 110/130/118 124/131/118 125/159/118
f 118/135/119 102/133/119 117/158/119
f 126/136/120 110/130/120 125/159/120
f 104/116/121 118/135/121 119/139/121
f 112/120/122 126/136/122 127/143/122
f 105/138/123 119/139/123 120/151/123
f 121/144/126 105/138/126 120/151/126
f 114/145/127 98/118/127 113/141/127
f 122/146/128 106/121/128 121/144/128
f 115/147/129 99/122/129 114/145/129
f 108/132/130 122/146/130 123/155/130
f 116/134/131 100/124/131 115/147/131
f 136/150/133 120/151/133 135/170/133
f 114/145/134 128/152/134 129/177/134
f 137/153/135 121/144/135 136/150/135
f 130/154/136 114/145/136 129/177/136
f 123/155/137 137/153/137 138/180/137
f 131/156/138 115/147/138 130/154/138
f 139/157/139 123/155/139 138/180/139
f 117/158/140 131/156/140 132/167/140
f 125/159/141 139/157/141 140/164/141
f 133/160/142 117/158/142 132/167/142
f 141/161/143 125/159/143 140/164/143
f 119/139/144 133/160/144 134/162/144
f 142/149/145 126/136/145 141/161/145
f 120/151/146 134/162/146 135/170/146
f 140/164/148 154/165/148 155/188/148
f 148/166/149 132/167/149 147/187/149
f 156/168/150 140/164/150 155/188/150
f 134/162/151 148/166/151 149/171/151
f 157/169/152 141/161/152 156/168/152
f 135/170/153 149/171/153 150/191/153
f 151/175/156 135/170/156 150/191/156
f 144/176/157 128/152/157 143/173/157
f 152/178/158 136/150/158 151/175/158
f 145/179/159 129/177/159 144/176/159
f 138/180/160 152/178/160 153/184/160
f 146/181/161 130/154/161 145/179/161
f 154/165/162 138/180/162 153/184/162
f 132/167/163 146/181/163 147/187/163
f 159/182/164 143/173/164 158/194/164
f 167/183/165 151/175/165 166/197/165
f 145/179/166 159/182/167 160/212/166
f 153/184/168 167/183/168 168/213/168
f 161/185/169 145/179/169 160/212/169
f 169/186/170 153/184/170 168/213/170
f 147/187/171 161/185/171 162/199/171
f 155/188/172 169/186/172 170/201/172
f 163/189/173 147/187/173 162/199/173
f 171/190/174 155/188/175 170/201/175
f 149/171/176 163/189/176 164/192/176
f 157/169/177 171/190/177 172/196/177
f 150/191/178 164/192/178 165/202/178
f 166/197/181 150/191/181 165/202/181
f 178/198/182 162/199/182 177/221/182
f 186/200/183 170/201/183 185/222/183
f 164/192/184 178/198/184 179/203/184
f 172/196/185 186/200/185 187/207/523
f 165/202/186 179/203/186 180/226/186
f 181/208/189 165/202/189 180/226/189
f 174/209/190 158/194/190 173/205/190
f 182/210/191 166/197/191 181/208/191
f 175/211/192 159/182/192 174/209/192
f 168/213/193 182/210/193 183/218/193
f 176/214/194 160/212/194 175/211/194
f 184/215/195 168/213/195 183/218/195
f 162/199/196 176/214/196 177/221/196
f 170/201/197 184/215/197 185/222/197
f 197/216/198 181/208/198 196/231/198
f 175/211/199 189/217/199 190/245/199
f 183/218/200 197/216/200 198/246/200
f 191/219/201 175/211/201 190/245/201
f 199/220/202 183/218/202 198/246/202
f 177/221/203 191/219/203 192/249/203
f 185/222/204 199/220/204 200/233/204
f 193/223/205 177/221/205 192/249/205
f 201/224/206 185/222/206 200/233/206
f 179/203/207 193/223/207 194/227/207
f 202/225/208 186/200/208 201/224/208
f 180/226/209 194/227/209 195/236/209
f 196/231/212 180/226/212 195/236/212
f 174/209/213 188/229/213 189/217/213
f 216/232/214 200/233/215 215/256/215
f 194/227/216 208/234/216 209/237/216
f 217/235/217 201/224/217 216/232/217
f 195/236/218 209/237/218 210/260/218
f 211/241/221 195/236/221 210/260/221
f 204/242/222 188/229/222 203/239/222
f 212/243/223 196/231/223 211/241/223
f 205/244/224 189/217/224 204/242/224
f 198/246/225 212/243/225 213/251/225
f 206/247/226 190/245/226 205/244/226
f 214/248/227 198/246/227 213/251/227
f 192/249/228 206/247/228 207/255/228
f 200/233/229 214/248/229 215/256/229
f 208/234/230 192/249/230 207/255/230
f 220/250/231 204/242/231 219/266/231
f 213/251/232 227/252/232 228/278/232
f 221/253/233 205/244/233 220/250/233
f 229/254/234 213/251/234 228/278/234
f 207/255/235 221/253/235 222/281/235
f 215/256/236 229/254/236 230/282/236
f 223/257/237 207/255/237 222/281/237
f 231/258/238 215/256/238 230/282/238
f 209/237/239 223/257/239 224/261/239
f 232/259/240 216/232/240 231/258/240
f 210/260/241 224/261/241 225/269/241
f 226/265/244 210/260/244 225/269/244
f 219/266/245 203/239/245 218/263/245
f 227/252/246 211/241/246 226/265/246
f 224/261/247 238/267/247 239/270/247
f 247/268/248 231/258/248 246/283/248
f 225/269/249 239/270/249 240/292/249
f 241/274/252 225/269/252 240/292/252
f 234/275/253 218/263/253 233/272/253
f 242/276/254 226/265/254 241/274/254
f 235/277/255 219/266/255 234/275/255
f 228/278/256 242/276/256 243/284/256
f 236/279/257 220/250/257 235/277/257
f 244/280/258 228/278/258 243/284/258
f 222/281/259 236/279/259 237/288/259
f 230/282/260 244/280/260 245/289/260
f 238/267/261 222/281/261 237/288/261
f 246/283/262 230/282/262 245/289/262
f 243/284/263 257/285/263 258/310/263
f 251/286/264 235/277/264 250/300/264
f 259/287/265 243/284/265 258/310/265
f 237/288/266 251/286/266 252/313/266
f 245/289/267 259/287/267 260/314/267
f 253/290/268 237/288/268 252/313/268
f 261/291/269 245/289/269 260/314/269
f 239/270/270 253/290/270 254/293/270
f 247/268/271 261/291/271 262/297/271
f 240/292/272 254/293/272 255/302/524
f 256/298/275 240/292/275 255/302/525
f 249/299/276 233/272/276 248/295/276
f 257/285/277 241/274/277 256/298/277
f 250/300/278 234/275/278 249/299/278
f 277/301/279 261/291/279 276/322/279
f 255/302/280 269/303/280 270/325/280
f 271/307/283 255/302/283 270/325/283
f 249/299/284 263/305/284 264/332/284
f 272/308/285 256/298/285 271/307/285
f 265/309/286 249/299/286 264/332/286
f 258/310/287 272/308/287 273/318/287
f 266/311/288 250/300/288 265/309/288
f 274/312/289 258/310/289 273/318/289
f 252/313/290 266/311/290 267/319/290
f 260/314/291 274/312/291 275/316/291
f 268/315/292 252/313/292 267/319/292
f 261/291/293 275/316/293 276/322/293
f 254/293/294 268/315/294 269/303/294
f 289/317/295 273/318/295 288/343/295
f 267/319/296 281/320/296 282/346/296
f 275/316/297 289/317/297 290/323/297
f 283/321/298 267/319/298 282/346/298
f 276/322/299 290/323/299 291/349/299
f 269/303/300 283/321/300 284/326/300
f 292/324/301 276/322/301 291/349/301
f 270/325/302 284/326/302 285/340/302
f 286/330/305 270/325/305 285/340/305
f 279/331/306 263/305/306 278/328/306
f 287/333/307 271/307/307 286/330/307
f 280/334/308 264/332/308 279/331/308
f 273/318/309 287/333/309 288/343/309
f 281/320/310 265/309/310 280/334/310
f 301/339/313 285/340/313 300/358/313
f 294/341/314 278/328/314 293/336/314
f 302/342/315 286/330/315 301/339/315
f 280/334/316 294/341/316 295/365/316
f 288/343/317 302/342/317 303/367/317
f 296/344/318 280/334/318 295/365/318
f 304/345/319 288/343/319 303/367/319
f 282/346/320 296/344/320 297/351/320
f 290/323/321 304/345/321 305/353/321
f 298/347/322 282/346/322 297/351/322
f 306/348/323 290/323/323 305/353/323
f 284/326/324 298/347/324 299/350/324
f 307/338/325 291/349/325 306/348/325
f 285/340/326 299/350/326 300/358/326
f 297/351/327 312/352/327 313/376/327
f 305/353/328 320/354/328 321/377/328
f 314/355/329 297/351/329 313/376/329
f 322/356/330 305/353/330 321/377/330
f 299/350/331 314/355/331 315/359/331
f 323/357/332 306/348/332 322/356/332
f 300/358/333 315/359/333 316/369/333
f 317/363/336 300/358/336 316/369/336
f 294/341/337 309/361/337 310/366/337
f 318/364/338 301/339/338 317/363/338
f 295/365/339 310/366/339 311/372/339
f 303/367/340 318/364/340 319/373/340
f 312/352/341 295/365/341 311/372/341
f 320/354/342 303/367/342 319/373/342
f 332/368/343 316/369/343 331/390/343
f 325/370/344 309/361/344 324/383/344
f 333/371/345 317/363/345 332/368/345
f 311/372/346 325/370/346 326/399/346
f 319/373/347 333/371/347 334/400/347
f 327/374/348 311/372/348 326/399/348
f 335/375/349 319/373/349 334/400/349
f 313/376/350 327/374/350 328/387/350
f 321/377/351 335/375/351 336/379/351
f 329/378/352 313/376/352 328/387/352
f 322/356/353 336/379/354 337/389/353
f 315/359/355 329/378/355 330/381/355
f 338/380/356 322/356/356 337/389/356
f 316/369/357 330/381/357 331/390/357
f 336/379/360 350/385/360 351/410/360
f 344/386/361 328/387/361 343/409/361
f 352/388/362 336/379/362 351/410/362
f 330/381/363 344/386/363 345/391/363
f 338/380/364 352/388/364 353/395/364
f 331/390/365 345/391/365 346/414/365
f 347/396/368 331/390/368 346/414/368
f 325/370/369 339/393/369 340/403/369
f 348/397/370 332/368/370 347/396/370
f 341/398/371 325/370/371 340/403/371
f 334/400/372 348/397/372 349/406/372
f 342/401/373 326/399/373 341/398/373
f 350/385/374 334/400/374 349/406/374
f 328/387/375 342/401/375 343/409/375
f 355/402/376 339/393/376 354/417/376
f 363/404/377 347/396/377 362/419/377
f 356/405/378 340/403/378 355/402/378
f 349/406/379 363/404/379 364/556/379
f 357/407/380 341/398/380 356/405/380
f 365/408/381 349/406/381 364/556/381
f 343/409/382 357/407/382 358/557/382
f 351/410/383 365/408/383 366/558/383
f 359/411/384 343/409/384 358/557/384
f 367/412/385 351/410/385 366/558/385
f 345/391/386 359/411/386 360/415/386
f 368/413/387 352/388/387 367/412/387
f 346/414/388 360/415/388 361/559/388
f 362/419/391 346/414/391 361/559/391
f 374/420/392 358/422/392 373/453/392
f 382/423/393 366/425/393 381/454/393
f 360/426/394 374/420/394 375/430/394
f 383/427/395 367/424/395 382/423/395
f 361/429/396 375/430/396 376/458/396
f 377/435/399 361/429/399 376/458/399
f 355/437/400 369/433/400 370/441/400
f 378/438/401 362/436/401 377/435/401
f 356/440/402 370/441/402 371/448/402
f 364/442/403 378/438/403 379/450/403
f 372/443/404 356/440/404 371/448/404
f 380/445/405 364/442/405 379/450/405
f 358/422/406 372/443/406 373/453/406
f 366/425/407 380/445/407 381/454/407
f 393/447/408 377/435/408 392/463/408
f 371/448/409 385/449/409 386/476/409
f 379/450/410 393/447/410 394/477/410
f 387/451/411 371/448/411 386/476/411
f 395/452/412 379/450/412 394/477/412
f 373/453/413 387/451/413 388/480/413
f 381/454/414 395/452/414 396/464/414
f 389/455/415 373/453/415 388/480/415
f 397/456/416 381/454/416 396/464/416
f 375/430/417 389/455/417 390/459/417
f 398/457/418 382/423/418 397/456/418
f 376/458/419 390/459/419 391/468/419
f 392/463/422 376/458/422 391/468/422
f 385/449/423 369/433/423 384/461/423
f 397/456/424 411/465/424 412/488/424
f 390/459/426 404/466/426 405/469/426
f 413/467/427 397/456/427 412/488/427
f 391/468/428 405/469/428 406/489/428
f 407/473/431 391/468/431 406/489/431
f 385/449/432 399/471/432 400/497/432
f 408/474/433 392/463/433 407/473/433
f 401/475/434 385/449/434 400/497/434
f 394/477/435 408/474/435 409/481/435
f 402/478/436 386/476/436 401/475/436
f 410/479/437 394/477/437 409/481/437
f 388/480/438 402/478/438 403/485/438
f 396/464/439 410/479/439 411/465/439
f 404/466/440 388/480/440 403/485/440
f 409/481/441 423/482/441 424/508/441
f 417/483/442 401/475/442 416/507/442
f 425/484/443 409/481/443 424/508/443
f 403/485/444 417/483/444 418/511/444
f 411/465/445 425/484/445 426/512/445
f 419/486/446 403/485/446 418/511/446
f 427/487/447 411/465/447 426/512/447
f 405/469/448 419/486/448 420/490/448
f 413/467/449 427/487/449 428/494/449
f 406/489/450 420/490/450 421/499/450
f 422/495/453 406/489/453 421/499/453
f 415/496/454 399/471/454 414/492/454
f 423/482/455 407/473/455 422/495/455
f 401/475/456 415/496/456 416/507/456
f 443/498/457 427/487/457 442/514/457
f 421/499/458 435/500/458 436/524/458
f 437/504/461 421/499/461 436/524/461
f 430/505/462 414/492/462 429/502/462
f 438/506/463 422/495/463 437/504/463
f 416/507/464 430/505/464 431/516/464
f 424/508/465 438/506/465 439/518/465
f 432/509/466 416/507/466 431/516/466
f 440/510/467 424/508/467 439/518/467
f 418/511/468 432/509/468 433/519/468
f 426/512/469 440/510/469 441/520/469
f 434/513/470 418/511/470 433/519/470
f 442/514/471 426/512/471 441/520/471
f 420/490/472 434/513/472 435/500/472
f 447/515/473 431/516/473 446/541/473
f 455/517/474 439/518/474 454/542/474
f 433/519/475 447/515/475 448/545/475
f 441/520/476 455/517/476 456/546/476
f 449/521/477 433/519/477 448/545/477
f 457/522/478 441/520/479 456/546/479
f 435/500/480 449/521/480 450/525/480
f 458/523/481 442/514/481 457/522/481
f 436/524/482 450/525/482 451/532/482
f 452/529/485 436/524/485 451/532/485
f 445/530/486 429/502/486 444/527/486
f 453/531/487 437/504/487 452/529/487
f 431/516/488 445/530/489 446/541/488
f 439/518/490 453/531/490 454/542/490
f 451/532/491 465/533/491 466/552/491
f 467/538/494 451/532/494 466/552/494
f 460/539/495 444/527/495 459/535/495
f 468/540/496 452/529/496 467/538/496
f 446/541/497 460/539/497 461/555/497
f 454/542/498 468/540/498 469/549/498
f 462/543/499 446/541/499 461/555/499
f 470/544/500 454/542/500 469/549/500
f 448/545/501 462/543/501 463/550/501
f 456/546/502 470/544/502 471/551/502
f 464/547/503 448/545/503 463/550/503
f 472/548/504 456/546/504 471/551/504
f 450/525/505 464/547/505 465/533/505
f 473/537/506 457/522/506 472/548/526
f 479/5/507 469/549/507 6/6/507
f 463/550/508 476/1/508 2/8/508
f 471/551/509 479/5/509 480/10/509
f 464/547/510 2/8/510 477/11/510
f 481/13/511 471/551/511 480/10/511
f 465/533/512 477/11/512 3/14/512
f 482/17/513 472/548/513 481/13/513
f 466/552/514 3/14/514 4/19/527
f 5/25/517 466/552/517 4/19/517
f 460/539/518 474/20/518 475/26/518
f 478/28/519 467/538/519 5/25/519
f 461/555/520 475/26/520 1/2/520
f 6/6/521 468/540/521 478/28/521
f 462/543/522 1/2/522 476/1/522
